<?xml version="1.0" encoding="utf-8"?>
<!-- Generator: Adobe Illustrator 16.0.4, SVG Export Plug-In . SVG Version: 6.00 Build 0)  -->
<!DOCTYPE svg PUBLIC "-//W3C//DTD SVG 1.1//EN" "http://www.w3.org/Graphics/SVG/1.1/DTD/svg11.dtd">
<svg version="1.1" id="Layer_1" xmlns="http://www.w3.org/2000/svg" xmlns:xlink="http://www.w3.org/1999/xlink" x="0px" y="0px"
	 width="501px" height="621px" viewBox="0 0 501 621" enable-background="new 0 0 501 621" xml:space="preserve">
<g>
	<rect x="88.182" y="372.688" fill="#3B372B" width="38.263" height="5.026"/>
</g>
<g>
	<rect x="60.851" y="437.77" fill="#322C0A" width="5.466" height="2.712"/>
</g>
<g>
	<rect x="60.852" y="443.194" fill="#322C0A" width="2.733" height="5.423"/>
</g>
<g>
	<rect x="-0.193" y="584.199" fill="#6D6E70" width="0.917" height="2.712"/>
</g>
<g>
	<rect x="-0.193" y="586.911" fill="#1D1C1B" width="0.917" height="8.136"/>
</g>
<g>
	<rect x="-0.193" y="592.336" fill="#1D1C1B" width="3.65" height="8.135"/>
</g>
<g>
	<rect x="-0.193" y="597.76" fill="#1D1C1B" width="0.917" height="23.401"/>
</g>
<g>
	<rect x="243.967" y="592.336" fill="#6D6E70" width="2.732" height="5.422"/>
</g>
<g>
	<rect x="243.967" y="597.76" fill="#6D6E70" width="2.732" height="5.423"/>
</g>
<g>
	<rect x="246.699" y="603.182" fill="#6D6E70" width="2.733" height="5.424"/>
</g>
<g>
	<rect x="233.034" y="608.605" fill="#1D1C1B" width="13.665" height="12.556"/>
</g>
<g>
	<rect x="241.233" y="611.316" fill="#1D1C1B" width="8.2" height="9.845"/>
</g>
<g>
	<rect x="238.5" y="595.047" fill="#1D1C1B" width="5.468" height="16.271"/>
</g>
<g>
	<rect x="241.233" y="603.181" fill="#1D1C1B" width="5.465" height="10.847"/>
</g>
<g>
	<rect x="243.968" y="608.605" fill="#1D1C1B" width="5.465" height="5.422"/>
</g>
<g>
	<polygon fill="#1D1C1B" points="63.585,621.161 63.585,608.629 66.317,608.629 66.317,605.924 66.317,603.216 69.051,603.216 
		69.051,603.216 69.051,600.51 69.051,597.802 71.783,597.802 71.783,595.096 74.516,595.096 74.516,589.683 77.249,589.683 
		77.249,586.977 79.982,586.977 79.982,584.271 82.716,584.271 82.716,581.563 85.448,581.563 85.448,578.856 88.182,578.856 
		88.182,576.149 90.915,576.149 90.915,573.443 96.381,573.443 96.382,573.443 126.445,573.443 126.445,573.097 126.445,570.736 
		129.178,570.736 129.178,568.03 131.911,568.03 131.911,565.324 131.911,565.322 142.844,565.322 142.844,562.617 145.576,562.617 
		145.576,559.911 153.777,559.911 153.777,557.204 156.51,557.204 156.51,554.497 159.243,554.497 159.243,551.793 161.974,551.793 
		161.974,551.789 161.976,551.789 161.976,549.084 164.707,549.084 161.974,549.084 161.974,546.379 161.974,546.379 
		161.974,546.379 164.707,546.379 167.44,546.379 167.44,549.084 175.639,549.084 181.106,549.084 181.106,551.793 183.839,551.793 
		183.839,554.497 189.306,554.497 189.306,557.204 194.772,557.204 194.772,559.91 205.704,559.91 205.704,562.616 208.437,562.616 
		208.437,565.324 211.169,565.324 216.636,565.324 216.636,568.03 219.369,568.03 219.369,570.736 222.101,570.736 222.101,573.443 
		227.568,573.443 227.568,576.149 230.3,576.149 230.3,578.856 233.034,578.856 233.034,581.562 235.767,581.562 235.767,584.271 
		238.5,584.271 238.5,586.976 241.233,586.976 241.233,621.161 	"/>
</g>
<g>
	<rect x="58.117" y="546.235" fill="#1D1C1B" width="2.732" height="0.001"/>
</g>
<g>
	<polygon fill="#1D1C1B" points="0.724,621.16 0.724,585.854 3.457,585.854 3.457,581.488 6.19,581.488 6.19,578.777 8.923,578.777 
		8.923,576.066 11.656,576.066 11.656,573.625 14.389,573.625 14.389,570.642 17.123,570.642 17.123,567.931 19.855,567.931 
		19.855,565.219 22.588,565.219 22.588,562.507 26.211,562.507 26.211,559.796 41.719,559.796 41.719,557.084 49.918,557.084 
		49.918,551.66 58.118,551.66 58.118,548.949 60.851,548.949 60.851,551.66 58.118,551.66 58.118,554.371 60.851,554.371 
		60.851,557.084 58.118,557.084 58.118,559.796 60.851,559.796 60.851,562.507 58.118,562.507 58.118,565.219 60.851,565.219 
		60.851,567.929 60.851,567.931 58.118,567.931 55.384,567.931 55.384,570.642 52.651,570.642 52.651,578.775 49.918,578.775 
		47.186,578.775 47.186,581.488 44.453,581.488 44.453,584.2 41.719,584.2 41.719,586.911 38.986,586.911 38.986,597.758 
		41.719,597.758 41.719,600.47 38.986,600.47 38.986,603.182 36.253,603.182 36.253,621.16 	"/>
</g>
<g>
	<polygon fill="#D89F00" points="99.114,538.102 99.114,535.39 96.381,535.39 96.381,527.256 93.648,527.256 93.648,524.544 
		88.182,524.544 88.182,521.832 85.449,521.832 85.449,519.119 71.783,519.119 71.783,519.119 69.05,519.119 69.05,516.408 
		66.317,516.408 66.317,432.346 159.458,432.346 159.458,516.408 156.508,516.408 156.508,519.119 153.774,519.119 153.774,521.83 
		151.043,521.83 151.043,524.544 148.309,524.544 148.309,527.256 148.309,529.969 145.576,529.969 145.576,532.679 140.11,532.679 
		140.11,535.39 134.645,535.39 134.645,538.102 	"/>
</g>
<g>
	<rect x="99.114" y="529.969" fill="#A9782B" width="2.733" height="2.71"/>
</g>
<g>
	<rect x="126.445" y="529.969" fill="#A9782B" width="2.733" height="2.71"/>
</g>
<g>
	<rect x="101.847" y="508.272" fill="#A9782B" width="24.598" height="16.271"/>
</g>
<g>
	<polygon fill="#A9782B" points="120.979,494.716 120.979,489.291 118.245,489.291 118.245,473.022 118.245,470.309 
		118.245,467.598 115.512,467.598 115.512,464.887 112.778,464.887 112.778,459.464 118.245,459.464 118.245,462.175 
		120.979,462.175 120.979,467.598 123.711,467.598 123.711,470.309 123.711,473.022 123.711,483.868 129.178,483.868 
		129.178,489.291 126.445,489.291 126.445,494.716 	"/>
</g>
<g>
	<rect x="107.313" y="489.294" fill="#A9782B" width="5.465" height="5.422"/>
</g>
<g>
	<polygon fill="#C4871A" points="63.584,486.579 60.851,486.579 58.118,486.579 58.118,483.868 55.385,483.868 55.385,478.444 
		52.652,478.444 52.652,462.175 55.385,462.175 55.385,459.464 63.584,459.464 63.584,456.752 63.584,454.04 63.584,451.327 
		63.584,448.616 63.584,445.905 63.584,443.192 63.584,440.481 63.584,437.77 66.317,437.77 82.716,437.77 137.376,437.77 
		137.376,448.616 88.181,448.616 88.28,460.443 76.074,460.443 75.803,483.868 66.317,483.868 66.317,486.579 	"/>
</g>
<g>
	<polygon fill="#3A3120" points="161.974,432.346 161.974,429.635 151.043,429.635 151.043,426.924 96.381,426.924 96.381,424.212 
		66.317,424.212 66.317,416.075 66.317,413.364 69.05,413.364 69.05,405.23 69.05,388.96 71.783,388.96 71.783,380.825 
		74.516,380.825 74.516,378.113 77.249,378.113 77.249,375.4 140.11,375.4 140.11,378.113 151.043,378.113 151.043,380.825 
		159.241,380.825 159.241,383.536 164.707,383.536 164.707,386.247 167.44,386.247 167.44,388.96 170.174,388.96 170.174,413.364 
		167.44,413.364 167.44,413.364 167.44,413.364 167.44,416.075 167.44,421.5 167.44,424.212 167.44,426.924 167.44,432.346 	"/>
</g>
<g>
	<rect x="99.113" y="369.979" fill="#494949" width="16.399" height="2.711"/>
</g>
<g>
	<rect x="90.914" y="437.77" fill="#7E6B4A" width="19.132" height="2.712"/>
</g>
<g>
	<polygon fill="#937D68" points="167.44,443.192 167.44,443.192 110.046,443.192 110.046,440.481 172.907,440.481 172.907,443.192 	
		"/>
</g>
<g>
	<polygon fill="#937D68" points="205.704,440.481 205.704,426.924 194.772,426.924 194.772,429.635 189.306,429.635 189.306,435.06 
		181.106,435.06 181.106,437.77 178.374,437.77 178.374,440.481 172.907,440.481 172.907,437.77 175.639,437.77 175.639,435.06 
		178.374,435.06 178.374,432.346 181.106,432.346 181.106,429.635 186.573,429.635 186.573,426.924 189.306,426.924 
		189.306,424.212 192.038,424.212 192.038,421.5 205.704,421.5 205.704,424.212 208.437,424.212 208.437,440.481 	"/>
</g>
<g>
	<polygon fill="#937D68" points="194.771,451.328 194.771,448.616 197.505,448.616 197.505,445.905 200.237,445.905 
		200.237,443.192 202.971,443.192 202.971,440.481 205.704,440.481 205.704,445.905 202.971,445.905 202.971,448.616 
		200.237,448.616 200.237,451.328 	"/>
</g>
<g>
	<rect x="189.306" y="451.328" fill="#937D68" width="5.466" height="2.713"/>
</g>
<g>
	<rect x="183.839" y="454.04" fill="#937D68" width="5.466" height="2.713"/>
</g>
<g>
	<rect x="170.174" y="456.753" fill="#937D68" width="10.932" height="2.711"/>
</g>
<g>
	<polygon fill="#675443" points="159.24,459.464 159.24,456.752 159.24,454.04 159.24,454.04 164.707,454.04 164.707,448.616 
		189.306,448.616 189.306,454.04 183.839,454.04 183.839,456.752 181.106,456.752 181.106,459.464 	"/>
</g>
<g>
	<rect x="69.05" y="432.346" fill="#7A6955" width="13.666" height="2.711"/>
</g>
<g>
	<rect x="63.584" y="429.635" fill="#7B6C59" width="13.665" height="2.711"/>
</g>
<g>
	<rect x="60.851" y="443.192" fill="#322C0A" width="2.733" height="2.713"/>
</g>
<g>
	<rect x="49.919" y="440.48" fill="#7E6D59" width="2.732" height="2.712"/>
</g>
<g>
	<rect x="44.452" y="435.057" fill="#7E6D59" width="2.732" height="2.713"/>
</g>
<g>
	<polygon fill="#7E6D59" points="47.186,440.481 44.453,440.481 41.72,440.481 41.72,437.77 44.453,437.77 47.186,437.77 
		49.919,437.77 49.919,440.481 	"/>
</g>
<g>
	<polygon fill="#6F6259" points="47.186,445.905 47.186,443.192 44.453,443.192 44.453,437.771 47.186,437.771 49.919,437.771 
		49.919,440.481 49.919,445.905 	"/>
</g>
<g>
	<polygon fill="#6F6259" points="52.652,445.905 49.919,445.905 49.919,443.192 52.652,443.192 55.385,443.192 55.385,445.905 	"/>
</g>
<g>
	<rect x="36.253" y="435.057" fill="#736445" width="2.732" height="2.713"/>
</g>
<g>
	<rect x="36.253" y="437.77" fill="#9E9681" width="2.732" height="2.712"/>
</g>
<g>
	<rect x="52.652" y="445.904" fill="#978C8A" width="2.733" height="2.712"/>
</g>
<g>
	<rect x="55.385" y="445.904" fill="#978C8A" width="2.733" height="2.712"/>
</g>
<g>
	<rect x="44.452" y="443.192" fill="#978C8A" width="2.732" height="2.713"/>
</g>
<g>
	<polygon fill="#978C8A" points="30.788,437.77 30.788,435.057 33.521,435.057 36.253,435.057 36.253,437.768 33.521,437.768 
		33.521,437.77 	"/>
</g>
<g>
	<rect x="60.852" y="437.768" fill="#322C0A" width="5.465" height="2.713"/>
</g>
<g>
	<rect x="63.584" y="435.057" fill="#2F280C" width="2.732" height="2.713"/>
</g>
<g>
	<rect x="60.851" y="426.924" fill="#7B6C59" width="8.199" height="2.711"/>
</g>
<g>
	<polygon fill="#D0D2D3" points="131.911,470.309 129.177,470.309 129.177,467.598 131.911,467.598 134.644,467.598 
		134.644,470.309 	"/>
</g>
<g>
	<polygon fill="#4A449A" points="142.842,470.309 140.11,470.309 140.11,467.598 137.376,467.598 137.376,462.175 140.11,462.175 
		145.576,462.175 148.309,462.175 148.309,467.598 145.576,467.598 145.576,470.309 	"/>
</g>
<g>
	<rect x="140.11" y="462.177" fill="#231F20" width="5.466" height="5.422"/>
</g>
<g>
	<rect x="142.842" y="462.175" fill="#FFFFFF" width="2.733" height="2.713"/>
</g>
<g>
	<polygon fill="#F9F9F9" points="137.376,470.309 134.644,470.309 134.644,467.598 129.177,467.598 129.177,467.598 
		129.177,467.598 126.445,467.598 126.445,464.887 129.177,464.887 129.177,462.175 131.911,462.175 131.911,462.175 
		131.911,462.175 131.911,462.175 131.911,462.175 131.911,462.175 137.376,462.175 137.376,464.887 137.376,467.598 
		140.11,467.598 140.11,470.309 	"/>
</g>
<g>
	<polygon fill="#D0D2D3" points="82.716,470.309 79.982,470.309 79.982,467.598 82.716,467.598 85.448,467.598 85.448,470.309 	"/>
</g>
<g>
	<polygon fill="#4A449A" points="93.647,470.309 90.915,470.309 90.915,467.598 88.182,467.598 88.182,462.175 90.915,462.175 
		96.381,462.175 99.114,462.175 99.114,467.598 96.381,467.598 96.381,470.309 	"/>
</g>
<g>
	<rect x="90.914" y="462.177" fill="#231F20" width="5.467" height="5.422"/>
</g>
<g>
	<rect x="93.648" y="462.175" fill="#FFFFFF" width="2.733" height="2.713"/>
</g>
<g>
	<path fill="#F9F9F9" d="M88.182,470.309h-2.734v-2.711h-5.466l0,0l0,0h-2.732v-2.711h2.732v-2.713h2.734l0,0l0,0h5.465h0.001v2.713
		v2.711h2.733v2.711H88.182z"/>
</g>
<g>
	<polygon fill="#D89F00" points="159.241,483.868 159.241,459.464 167.44,459.464 167.44,462.175 170.174,462.175 170.174,481.156 
		167.44,481.156 167.44,483.868 	"/>
</g>
<g>
	<rect x="159.241" y="481.156" fill="#D89F00" width="5.466" height="5.423"/>
</g>
<g>
	<rect x="55.385" y="462.177" fill="#8A5D3B" width="2.733" height="2.711"/>
</g>
<g>
	<rect x="58.118" y="462.177" fill="#8A5D3B" width="2.732" height="2.711"/>
</g>
<g>
	<rect x="60.851" y="467.598" fill="#8A5D3B" width="2.733" height="2.711"/>
</g>
<g>
	<rect x="58.118" y="470.31" fill="#8A5D3B" width="2.732" height="2.713"/>
</g>
<g>
	<rect x="60.851" y="473.021" fill="#8A5D3B" width="2.733" height="2.713"/>
</g>
<g>
	<polygon fill="#0F0E00" points="164.707,440.481 159.241,440.481 156.508,440.481 156.508,437.77 153.775,437.77 148.308,437.77 
		148.308,435.057 142.844,435.057 137.376,435.057 134.644,435.057 131.911,435.057 129.178,435.057 123.711,435.057 
		118.245,435.057 115.513,435.057 112.779,435.057 110.046,435.057 107.313,435.057 104.58,435.057 101.847,435.057 99.114,435.057 
		93.648,435.057 90.915,435.057 90.915,432.346 88.181,432.346 82.716,432.346 77.249,432.346 77.249,429.635 74.516,429.635 
		71.783,429.635 69.05,429.635 69.05,426.924 66.317,426.924 66.317,418.788 74.516,418.788 74.516,421.499 77.249,421.499 
		79.982,421.499 82.716,421.499 82.716,424.212 85.448,424.212 88.181,424.212 90.915,424.212 96.381,424.212 96.381,426.924 
		99.114,426.924 101.847,426.924 104.58,426.924 107.313,426.924 110.046,426.924 112.779,426.924 115.513,426.924 118.245,426.924 
		123.711,426.924 129.178,426.924 131.911,426.924 134.644,426.924 137.376,426.924 142.844,426.924 151.043,426.924 
		151.043,429.635 153.775,429.635 156.508,429.635 161.974,429.635 161.974,432.346 164.707,432.346 167.44,432.346 167.44,440.481 
			"/>
</g>
<g>
	<rect x="58.119" y="445.905" fill="#0F0E00" width="2.732" height="2.711"/>
</g>
<g>
	<rect x="60.851" y="440.48" fill="#0F0E00" width="2.733" height="2.712"/>
</g>
<g>
	<polygon fill="#0F0E00" points="101.847,462.175 101.847,459.464 99.114,459.464 88.182,459.464 82.716,459.464 82.716,456.753 
		77.249,456.753 77.249,459.464 71.783,459.464 71.783,456.753 74.516,456.753 74.516,454.04 77.249,454.04 82.716,454.04 
		88.182,454.04 93.648,454.04 99.114,454.04 104.58,454.04 104.58,456.753 107.313,456.753 107.313,462.175 	"/>
</g>
<g>
	<rect x="123.711" y="459.464" fill="#0F0E00" width="5.466" height="2.711"/>
</g>
<g>
	<polygon fill="#0F0E00" points="126.443,459.464 126.443,456.753 131.911,456.753 131.911,454.04 153.775,454.04 153.775,456.753 
		148.309,456.753 148.309,459.464 	"/>
</g>
<g>
	<rect x="107.313" y="492.005" fill="#0F0E00" width="2.733" height="2.709"/>
</g>
<g>
	<rect x="120.979" y="492.005" fill="#0F0E00" width="2.733" height="2.711"/>
</g>
<g>
	<rect x="161.974" y="462.177" fill="#8A5D3B" width="2.734" height="2.711"/>
</g>
<g>
	<rect x="164.708" y="464.887" fill="#8A5D3B" width="2.732" height="2.711"/>
</g>
<g>
	<rect x="159.241" y="467.598" fill="#A87C4F" width="2.731" height="2.711"/>
</g>
<g>
	<rect x="161.974" y="470.31" fill="#A87C4F" width="2.734" height="2.713"/>
</g>
<g>
	<rect x="159.241" y="473.021" fill="#A87C4F" width="2.731" height="2.713"/>
</g>
<g>
	<polygon fill="#00421F" points="170.174,605.892 172.907,605.892 172.907,603.181 170.174,603.181 170.174,584.199 
		172.907,584.199 172.907,581.488 192.04,581.488 192.04,584.199 194.772,584.199 194.772,603.181 192.04,603.181 192.04,605.892 	
		"/>
</g>
<g>
	<polygon fill="#FFFFFF" points="181.106,597.76 181.106,592.336 175.64,592.336 175.64,589.623 181.106,589.623 181.106,584.199 
		183.839,584.199 183.839,597.76 	"/>
</g>
<g>
	<rect x="186.571" y="584.199" fill="#FFFFFF" width="2.734" height="2.712"/>
</g>
<g>
	<polygon fill="#FFFFFF" points="186.571,595.047 186.571,592.336 186.571,589.625 189.306,589.625 189.306,595.047 	"/>
</g>
<g>
	<polygon fill="#FFFFFF" points="186.571,600.47 186.571,597.76 186.571,595.047 189.306,595.047 189.306,600.47 	"/>
</g>
<g>
	<rect x="183.839" y="600.47" fill="#FFFFFF" width="2.731" height="2.712"/>
</g>
<g>
	<rect x="175.64" y="597.76" fill="#FFFFFF" width="5.466" height="2.711"/>
</g>
<g>
	<rect x="172.906" y="595.047" fill="#FFFFFF" width="2.733" height="2.713"/>
</g>
<g>
	<rect x="172.906" y="592.336" fill="#FFFFFF" width="2.733" height="2.711"/>
</g>
<g>
	<rect x="200.237" y="581.488" fill="#3B3B4C" width="2.734" height="2.711"/>
</g>
<g>
	<rect x="200.237" y="586.911" fill="#3B3B4C" width="2.734" height="2.714"/>
</g>
<g>
	<rect x="200.237" y="592.336" fill="#3B3B4C" width="2.734" height="2.711"/>
</g>
<g>
	<rect x="200.237" y="597.76" fill="#3B3B4C" width="2.734" height="2.712"/>
</g>
<g>
	<rect x="200.237" y="603.184" fill="#3B3B4C" width="2.734" height="2.711"/>
</g>
<g>
	<rect x="161.976" y="581.488" fill="#3B3B4C" width="2.732" height="2.711"/>
</g>
<g>
	<rect x="161.976" y="586.911" fill="#3B3B4C" width="2.732" height="2.714"/>
</g>
<g>
	<rect x="161.976" y="592.336" fill="#3B3B4C" width="2.732" height="2.711"/>
</g>
<g>
	<rect x="161.976" y="597.76" fill="#3B3B4C" width="2.732" height="2.712"/>
</g>
<g>
	<rect x="161.976" y="603.184" fill="#3B3B4C" width="2.732" height="2.711"/>
</g>
<g>
	<polygon fill="#9B7651" points="99.114,538.102 96.381,538.102 93.648,538.102 93.648,535.741 90.914,535.741 90.914,535.39 
		88.181,535.39 88.181,533.029 85.448,533.029 85.448,532.678 82.715,532.678 82.715,529.967 79.982,529.967 79.982,527.605 
		77.249,527.605 77.249,524.544 74.516,524.544 74.516,521.83 71.783,521.83 71.783,513.697 69.05,513.697 66.317,513.697 
		66.317,483.868 69.05,483.868 71.783,483.868 74.517,483.868 74.517,499.788 77.249,499.788 77.249,518.77 79.982,518.77 
		79.982,519.119 85.448,519.119 85.448,521.83 88.181,521.83 88.181,524.544 93.648,524.544 93.648,526.903 96.381,526.903 
		96.381,529.614 96.381,529.969 99.114,529.969 99.114,532.327 101.847,532.327 101.847,538.102 	"/>
</g>
<g>
	<polygon fill="#9B7651" points="131.911,538.102 129.178,538.102 126.445,538.102 126.445,532.327 129.178,532.327 
		129.178,529.969 131.911,529.969 131.911,529.614 131.911,529.614 131.911,526.903 134.644,526.903 134.644,524.544 
		140.11,524.544 140.11,521.83 142.844,521.83 142.844,519.119 148.309,519.119 148.309,518.77 151.043,518.77 151.043,499.788 
		153.774,499.788 153.774,483.868 156.508,483.868 159.241,483.868 161.974,483.868 161.974,513.697 159.241,513.697 
		156.508,513.697 156.508,521.83 153.775,521.83 153.775,524.544 151.043,524.544 151.043,527.605 148.309,527.605 148.309,529.967 
		145.576,529.967 145.576,532.678 142.844,532.678 142.844,533.029 140.11,533.029 140.11,535.39 137.376,535.39 137.376,535.741 
		134.644,535.741 134.644,538.102 	"/>
</g>
<g>
	<rect x="52.651" y="421.5" fill="#736445" width="2.733" height="2.712"/>
</g>
<g>
	<polygon fill="#675433" points="55.385,445.905 55.385,443.192 55.385,443.192 52.652,443.192 52.652,443.192 52.652,440.481 
		49.919,440.481 49.918,440.481 49.918,437.77 47.186,437.77 47.186,437.77 44.453,437.77 41.72,437.77 41.719,437.77 
		41.719,437.77 41.719,440.48 38.986,440.48 38.986,437.77 36.253,437.77 36.253,435.06 33.521,435.06 28.054,435.06 
		28.054,432.346 25.322,432.346 25.322,432.346 25.322,432.346 25.322,429.635 22.588,429.635 22.588,429.635 22.588,429.635 
		22.588,426.924 22.588,424.212 22.588,424.212 22.588,421.499 22.588,418.788 22.588,418.788 22.588,416.075 22.588,413.364 
		22.588,413.364 22.588,410.652 25.322,410.652 25.322,407.941 25.322,407.941 25.322,407.941 28.054,407.941 28.054,405.23 
		33.521,405.23 33.521,402.518 38.986,402.518 38.986,405.23 44.453,405.23 44.453,407.941 47.186,407.941 47.186,410.652 
		49.918,410.652 49.918,413.364 49.919,413.364 49.919,416.075 52.652,416.075 52.652,418.788 55.385,418.788 55.385,421.499 
		58.119,421.499 66.317,421.499 66.317,424.212 66.317,424.212 66.317,426.924 66.317,426.924 63.584,426.924 63.584,429.635 
		63.584,429.635 63.584,432.346 66.317,432.346 69.05,432.346 69.05,432.346 69.05,435.057 69.05,437.77 69.05,437.77 
		63.584,437.77 63.584,437.77 60.851,437.77 60.851,440.48 60.851,440.481 60.851,443.192 60.851,443.192 60.851,445.905 
		58.119,445.905 58.119,445.905 	"/>
</g>
<g>
	<polygon fill="#675433" points="110.046,440.481 110.046,437.77 110.046,437.77 99.114,437.77 99.114,437.77 90.916,437.77 
		90.916,440.481 90.914,440.481 79.982,440.481 77.25,440.481 77.25,437.77 69.05,437.77 69.05,435.057 79.982,435.057 
		79.982,432.346 79.982,432.346 79.982,432.346 90.916,432.346 90.916,435.057 101.847,435.057 148.309,435.057 148.309,437.77 
		156.508,437.77 156.508,440.481 	"/>
</g>
<g>
	<polygon fill="#675433" points="159.241,459.464 159.241,448.616 134.644,448.616 134.644,445.905 134.644,443.192 
		172.906,443.192 172.906,443.192 172.906,443.192 172.906,440.481 178.372,440.481 178.372,437.77 181.106,437.77 181.106,435.057 
		181.106,435.057 181.106,435.057 189.306,435.057 189.306,432.346 189.306,432.346 189.306,429.635 194.772,429.635 
		194.772,426.924 205.704,426.924 205.704,432.346 205.704,432.346 205.704,435.057 205.704,435.057 205.704,435.294 
		205.704,437.77 205.704,440.481 205.702,440.481 205.702,440.481 202.971,440.481 202.971,443.192 200.237,443.192 
		200.237,443.192 200.237,443.192 200.237,445.905 200.237,445.905 200.237,445.905 197.503,445.905 197.503,448.616 
		194.772,448.616 194.772,451.327 189.306,453.835 164.707,453.835 164.707,454.04 164.707,454.04 164.707,459.464 	"/>
</g>
<g>
	<path fill="#00421F" d="M156.508,532.678L156.508,532.678L156.508,532.678L156.508,532.678L156.508,532.678z M36.253,621.16
		v-17.979h2.732v-2.712h2.733v-2.713h-2.733V586.91h2.733v-2.71h2.733v-2.712h2.732v-2.713h2.733h2.732v-8.134h2.733v-2.711h2.733
		h2.732v-0.002v-2.711h-2.732v-2.711h2.732v-2.712h-2.732v-2.713h2.732v-2.712h-2.732v-2.711h2.732v-2.711h-2.732v-2.714h2.732
		v-2.71h-2.732v-2.712h2.732V538.1v-2.711v-0.001h2.733h2.732v-2.712h-2.732v-2.712h2.732v-2.712h-2.732v-2.711h2.732v-2.711h2.733
		h2.732l0,0h2.732h2.733v2.711h2.732v2.711l0,0h2.734v2.714l0,0h2.731l0,0l0,0h2.733v2.71h2.733v2.712h2.732v0.001h0.001h2.732v2.71
		v0.001h35.531v-2.711h2.732l0,0h2.733l0,0h0.001v-2.713h2.731h2.732l0,0v-2.71h2.734v-2.714h2.732v-2.711h2.732v2.711h0.002l0,0
		v-2.711l0,0h2.731l0,0l0,0l0,0h2.732h2.732v2.711h-2.732h-0.001l0,0v2.712h0.001h2.732v2.712l0,0h2.732v2.711v0.002v2.71h2.733
		v2.711h-2.733v0.002v2.711h2.733v2.711h-2.733l0,0v2.712h2.733l0,0h-2.733v2.713l0,0h-2.731v2.712h-2.732v2.712h-2.733v2.712
		h-8.201v2.712h-2.731v2.71h-10.933v0.001v2.713h-2.733v2.711h-2.733v2.365v0.346h-27.33l0,0h-2.731l0,0h-5.468v2.714h-2.733v2.711
		h-2.733v2.711h-2.732v2.712h-2.734v2.711h-2.732v2.714h-2.733v5.422h-2.733v2.711h-2.73v2.713v2.712l0,0h-2.733v2.71v2.714h-2.733
		v12.555L36.253,621.16L36.253,621.16z"/>
</g>
<g>
	<rect x="115.512" y="391.672" fill="#FFFFFF" width="2.733" height="2.711"/>
</g>
<g>
	<rect x="120.979" y="410.653" fill="#FFFFFF" width="2.733" height="2.713"/>
</g>
<g>
	<rect x="115.512" y="388.961" fill="#336D9B" width="8.199" height="2.711"/>
</g>
<g>
	<rect x="123.711" y="410.653" fill="#FFCA3C" width="2.732" height="2.711"/>
</g>
<g>
	<polygon fill="#FFCA3C" points="120.978,416.077 115.512,416.077 115.512,416.077 115.512,413.364 112.779,413.364 112.779,405.23 
		115.512,405.23 115.512,402.519 123.711,402.519 123.711,399.807 126.443,399.807 126.443,397.096 126.443,394.383 131.91,394.383 
		131.91,397.096 134.644,397.096 134.644,405.23 131.91,405.23 131.91,407.941 118.245,407.941 118.245,410.653 120.978,410.653 
		120.978,413.364 123.711,413.364 123.711,416.077 	"/>
</g>
<g>
	<rect x="112.778" y="391.672" fill="#336D9B" width="2.733" height="2.711"/>
</g>
<g>
	<polygon fill="#336D9B" points="107.313,410.653 107.313,407.941 104.58,407.941 104.58,399.807 107.313,399.807 107.313,397.096 
		120.979,397.096 120.979,394.383 118.245,394.383 118.245,388.961 123.712,388.961 123.712,391.672 126.443,391.672 
		126.443,399.807 123.712,399.807 123.712,402.519 115.512,402.519 115.512,405.23 112.778,405.23 112.778,407.941 112.778,410.653 
			"/>
</g>
<g>
	<rect x="123.711" y="397.096" fill="#214D70" width="2.732" height="2.711"/>
</g>
<g>
	<rect x="120.979" y="399.808" fill="#214D70" width="2.733" height="2.711"/>
</g>
<g>
	<rect x="112.778" y="402.519" fill="#214D70" width="2.733" height="2.712"/>
</g>
<g>
	<rect x="115.512" y="399.808" fill="#214D70" width="2.733" height="2.711"/>
</g>
<g>
	<rect x="110.046" y="405.23" fill="#214D70" width="2.732" height="2.711"/>
</g>
<g>
	<rect x="107.313" y="397.096" fill="#779DC2" width="2.733" height="2.711"/>
</g>
<g>
	<rect x="104.58" y="399.807" fill="#779DC2" width="2.732" height="2.712"/>
</g>
<g>
	<rect x="104.58" y="402.519" fill="#779DC2" width="2.732" height="2.712"/>
</g>
<g>
	<rect x="112.778" y="391.672" fill="#779DC2" width="2.733" height="2.711"/>
</g>
<g>
	<rect x="115.512" y="388.961" fill="#779DC2" width="2.733" height="2.711"/>
</g>
<g>
	<rect x="126.443" y="394.383" fill="#FFE973" width="2.734" height="2.714"/>
</g>
<g>
	<rect x="112.779" y="405.23" fill="#FFE973" width="2.733" height="2.711"/>
</g>
<g>
	<rect x="115.512" y="402.519" fill="#FFE973" width="2.733" height="2.712"/>
</g>
<g>
	<rect x="118.245" y="402.519" fill="#FFE973" width="2.732" height="2.712"/>
</g>
<g>
	<rect x="131.911" y="399.807" fill="#E0B035" width="2.733" height="2.712"/>
</g>
<g>
	<rect x="131.911" y="402.519" fill="#E0B035" width="2.733" height="2.712"/>
</g>
<g>
	<rect x="129.178" y="405.23" fill="#E0B035" width="2.733" height="2.711"/>
</g>
<g>
	<rect x="126.445" y="405.23" fill="#E0B035" width="2.733" height="2.711"/>
</g>
<g>
	<rect x="123.711" y="410.653" fill="#E0B035" width="2.732" height="2.713"/>
</g>
<g>
	<rect x="120.979" y="413.366" fill="#E0B035" width="2.732" height="2.711"/>
</g>
<g>
	<rect x="99.114" y="459.464" fill="#3B2314" width="2.733" height="2.711"/>
</g>
<g>
	<rect x="82.716" y="451.328" fill="#3B2314" width="5.466" height="2.712"/>
</g>
<g>
	<polygon fill="#3B2314" points="153.775,462.175 153.775,459.464 148.309,459.464 148.309,456.753 156.508,456.753 
		156.508,459.464 156.508,462.175 	"/>
</g>
<g>
	<polygon fill="#3B2314" points="99.114,538.102 99.114,535.39 96.381,535.39 96.381,529.967 99.114,529.967 96.381,529.967 
		96.381,508.117 99.113,508.117 99.113,505.562 101.847,505.562 101.847,502.85 110.046,502.85 110.046,505.562 112.778,505.562 
		112.778,508.272 104.58,508.272 104.58,510.985 101.847,510.985 101.847,521.83 104.579,521.83 104.579,524.544 123.711,524.544 
		123.711,521.83 126.445,521.83 126.445,508.272 129.178,508.272 115.513,508.272 115.513,505.562 118.245,505.562 118.245,502.85 
		126.445,502.85 126.445,505.562 129.178,505.562 129.178,508.272 134.644,508.272 134.644,527.255 131.911,527.255 
		131.911,529.967 131.911,535.39 129.178,535.39 129.178,538.102 	"/>
</g>
<g>
	<rect x="93.648" y="510.983" fill="#3B2314" width="2.733" height="16.271"/>
</g>
<g>
	<rect x="104.58" y="440.48" fill="#3B2314" width="5.466" height="2.712"/>
</g>
<g>
	<rect x="110.046" y="443.192" fill="#3B2314" width="13.665" height="2.713"/>
</g>
<g>
	<rect x="131.911" y="443.194" fill="#3B2314" width="2.732" height="2.711"/>
</g>
<g>
	<rect x="159.241" y="459.464" fill="#3B2314" width="2.731" height="2.711"/>
</g>
<g>
	<polygon fill="#3B2314" points="156.508,478.444 156.508,475.733 156.508,462.175 159.241,462.175 159.241,475.733 
		159.241,478.444 	"/>
</g>
<g>
	<polygon fill="#3B2314" points="156.508,454.04 156.508,451.328 153.775,451.328 153.775,448.616 156.508,448.616 159.241,448.616 
		159.241,451.328 159.241,454.04 	"/>
</g>
<g>
	<rect x="123.711" y="508.272" fill="#3B2314" width="2.732" height="2.711"/>
</g>
<g>
	<polygon fill="#6D6E70" points="0.725,586.909 0.725,581.487 3.458,581.487 3.458,578.774 6.19,578.774 6.19,576.063 
		8.924,576.063 8.924,573.353 11.657,573.353 11.657,570.642 14.39,570.642 14.39,567.929 17.123,567.929 17.123,565.219 
		19.855,565.219 19.855,562.508 22.588,562.508 25.321,562.508 25.321,559.796 28.055,559.796 30.787,559.796 33.521,559.796 
		33.521,557.084 36.254,557.084 38.987,557.084 41.72,557.084 44.453,557.084 44.453,554.372 47.186,554.372 49.919,554.372 
		49.919,551.66 52.653,551.66 55.385,551.66 58.118,551.66 58.118,548.947 60.851,548.947 60.851,551.66 58.118,551.66 
		58.118,554.372 55.385,554.372 52.653,554.372 52.653,557.084 49.919,557.084 47.186,557.084 47.186,559.796 44.453,559.796 
		41.72,559.796 41.72,562.508 38.987,562.508 36.254,562.508 33.521,562.508 30.788,562.508 30.788,565.219 28.055,565.219 
		25.322,565.219 25.322,567.931 22.588,567.931 22.588,570.642 19.856,570.642 19.856,573.353 17.123,573.353 17.123,576.063 
		14.39,576.063 14.39,578.775 11.657,578.775 11.657,581.487 8.924,581.487 8.924,586.909 	"/>
</g>
<g>
	<rect x="33.521" y="562.508" fill="#231F20" width="2.733" height="2.711"/>
</g>
<g>
	<rect x="30.788" y="562.508" fill="#231F20" width="2.732" height="2.712"/>
</g>
<g>
	<rect x="28.055" y="567.931" fill="#231F20" width="2.733" height="2.711"/>
</g>
<g>
	<rect x="17.123" y="570.642" fill="#231F20" width="2.732" height="2.712"/>
</g>
<g>
	<rect x="14.39" y="573.353" fill="#231F20" width="2.733" height="2.712"/>
</g>
<g>
	<rect x="25.322" y="573.353" fill="#231F20" width="2.733" height="2.712"/>
</g>
<g>
	<rect x="22.588" y="578.775" fill="#231F20" width="2.732" height="2.712"/>
</g>
<g>
	<rect x="200.237" y="562.508" fill="#1D1C1B" width="10.933" height="8.135"/>
</g>
<g>
	<rect x="0.725" y="584.199" fill="#404041" width="2.733" height="2.712"/>
</g>
<g>
	<rect x="3.458" y="584.199" fill="#404041" width="2.732" height="2.712"/>
</g>
<g>
	<rect x="6.19" y="581.488" fill="#404041" width="2.733" height="2.711"/>
</g>
<g>
	<rect x="8.923" y="578.777" fill="#404041" width="2.732" height="2.711"/>
</g>
<g>
	<rect x="11.657" y="576.066" fill="#404041" width="2.731" height="2.711"/>
</g>
<g>
	<rect x="14.389" y="573.354" fill="#404041" width="2.733" height="2.712"/>
</g>
<g>
	<rect x="11.657" y="573.353" fill="#404041" width="2.731" height="2.712"/>
</g>
<g>
	<rect x="8.923" y="576.064" fill="#404041" width="2.732" height="2.713"/>
</g>
<g>
	<rect x="6.19" y="578.777" fill="#404041" width="2.733" height="2.711"/>
</g>
<g>
	<rect x="3.458" y="581.488" fill="#404041" width="2.731" height="2.711"/>
</g>
<g>
	<rect x="6.19" y="584.199" fill="#404041" width="2.733" height="2.712"/>
</g>
<g>
	<rect x="28.055" y="562.508" fill="#404041" width="2.733" height="2.711"/>
</g>
<g>
	<rect x="38.987" y="559.796" fill="#404041" width="2.733" height="2.712"/>
</g>
<g>
	<rect x="36.254" y="559.796" fill="#404041" width="2.732" height="2.712"/>
</g>
<g>
	<rect x="17.122" y="570.643" fill="#404041" width="2.732" height="2.712"/>
</g>
<g>
	<rect x="19.855" y="567.932" fill="#404041" width="2.733" height="2.711"/>
</g>
<g>
	<rect x="22.588" y="565.221" fill="#404041" width="2.732" height="2.711"/>
</g>
<g>
	<rect x="235.767" y="584.199" fill="#404041" width="2.732" height="2.712"/>
</g>
<g>
	<rect x="233.034" y="584.199" fill="#404041" width="2.732" height="2.712"/>
</g>
<g>
	<rect x="230.302" y="581.488" fill="#404041" width="2.732" height="2.711"/>
</g>
<g>
	<rect x="227.569" y="578.777" fill="#404041" width="2.733" height="2.711"/>
</g>
<g>
	<rect x="224.835" y="576.066" fill="#404041" width="2.733" height="2.711"/>
</g>
<g>
	<rect x="222.103" y="573.354" fill="#404041" width="2.732" height="2.712"/>
</g>
<g>
	<rect x="224.835" y="573.353" fill="#404041" width="2.733" height="2.712"/>
</g>
<g>
	<rect x="227.569" y="576.064" fill="#404041" width="2.733" height="2.713"/>
</g>
<g>
	<rect x="230.302" y="578.777" fill="#404041" width="2.732" height="2.711"/>
</g>
<g>
	<rect x="233.034" y="581.488" fill="#404041" width="2.732" height="2.711"/>
</g>
<g>
	<rect x="208.437" y="562.508" fill="#404041" width="2.733" height="2.711"/>
</g>
<g>
	<rect x="197.505" y="559.796" fill="#404041" width="2.731" height="2.712"/>
</g>
<g>
	<rect x="200.237" y="559.796" fill="#404041" width="2.734" height="2.712"/>
</g>
<g>
	<rect x="219.37" y="570.643" fill="#404041" width="2.732" height="2.712"/>
</g>
<g>
	<rect x="216.638" y="567.932" fill="#404041" width="2.732" height="2.711"/>
</g>
<g>
	<rect x="213.903" y="565.221" fill="#404041" width="2.734" height="2.711"/>
</g>
<g>
	<rect x="181.107" y="548.947" fill="#6D6E70" width="2.732" height="2.713"/>
</g>
<g>
	<path fill="#6D6E70" d="M224.835,565.219L224.835,565.219L224.835,565.219z"/>
</g>
<g>
	<polygon fill="#6D6E70" points="208.438,562.508 205.704,562.508 202.971,562.508 200.237,562.508 200.237,559.796 
		197.505,559.796 194.772,559.796 194.772,557.084 192.04,557.084 189.306,557.084 189.306,554.372 186.573,554.372 183.84,554.372 
		183.84,551.66 186.573,551.66 189.306,551.66 189.307,551.66 192.04,551.66 192.04,554.372 194.772,554.372 197.505,554.372 
		197.505,557.084 200.237,557.084 202.971,557.084 205.704,557.084 205.704,559.796 208.438,559.796 211.171,559.796 
		211.171,562.508 	"/>
</g>
<g>
	<rect x="219.37" y="567.931" fill="#6D6E70" width="2.732" height="2.711"/>
</g>
<g>
	<polygon fill="#6D6E70" points="216.638,567.931 216.638,565.219 213.903,565.219 211.171,565.219 211.171,562.508 
		213.903,562.508 213.903,565.219 219.37,565.219 219.37,567.931 	"/>
</g>
<g>
	<polygon fill="#6D6E70" points="227.569,578.775 227.569,576.063 224.835,576.063 224.835,573.353 222.103,573.353 
		222.103,570.642 224.835,570.642 224.835,573.353 227.569,573.353 227.569,573.354 230.302,573.354 230.302,576.064 
		230.302,578.775 	"/>
</g>
<g>
	<rect x="241.233" y="589.625" fill="#6D6E70" width="2.734" height="5.422"/>
</g>
<g>
	<polygon fill="#3B2314" points="66.317,483.868 66.317,481.156 66.317,478.444 66.317,475.733 63.583,475.733 63.583,470.309 
		63.583,467.598 63.583,464.887 63.583,459.464 63.583,454.04 63.583,451.328 63.583,448.617 60.851,448.617 60.851,440.481 
		63.583,440.481 63.583,440.481 66.317,440.481 66.317,437.771 77.249,437.771 77.249,440.481 79.982,440.481 79.982,443.192 
		74.517,443.192 74.517,445.905 71.783,445.905 71.783,448.616 71.783,451.328 69.05,451.328 69.05,454.04 69.05,467.598 
		66.317,467.598 66.317,470.309 66.317,473.022 69.05,473.022 69.05,478.444 71.783,478.444 71.783,481.156 71.783,483.868 	"/>
</g>
<g>
	<path fill="#AF2E2E" d="M208.437,532.68L208.437,532.68L208.437,532.68z M211.169,538.102v-2.711h-2.733v-2.711h2.733v-0.001
		h-2.733v-0.009h-19.131v-2.591h-5.466v-2.825h-2.733v-2.711h2.733v-2.712h-2.733v2.712h-2.731v-10.847h2.731v-2.712h2.733v-8.357
		h19.132v-5.2h8.198h2.733h2.732v0.149v2.331h2.733v5.653h-2.733v2.711h2.733v2.713h0.001v8.136h-5.468v16.271v2.711H211.169z"/>
</g>
<g>
	<rect x="208.437" y="494.716" fill="#C12D2D" width="2.733" height="2.712"/>
</g>
<g>
	<rect x="211.169" y="492.005" fill="#C12D2D" width="2.733" height="2.711"/>
</g>
<g>
	<rect x="213.903" y="529.969" fill="#4B0200" width="2.732" height="2.71"/>
</g>
<g>
	<rect x="213.903" y="527.255" fill="#4B0200" width="2.732" height="2.712"/>
</g>
<g>
	<rect x="216.636" y="532.678" fill="#4B0200" width="2.733" height="2.712"/>
</g>
<g>
	<rect x="211.169" y="500.138" fill="#4B0200" width="2.733" height="2.712"/>
</g>
<g>
	<rect x="213.903" y="500.138" fill="#4B0200" width="2.732" height="2.712"/>
</g>
<g>
	<rect x="213.903" y="497.427" fill="#4B0200" width="2.732" height="2.711"/>
</g>
<g>
	<rect x="216.636" y="497.427" fill="#4B0200" width="2.733" height="2.711"/>
</g>
<g>
	<rect x="208.437" y="502.85" fill="#4B0200" width="2.733" height="2.712"/>
</g>
<g>
	<rect x="213.903" y="492.005" fill="#770404" width="2.732" height="2.709"/>
</g>
<g>
	<rect x="211.169" y="494.716" fill="#770404" width="2.733" height="2.711"/>
</g>
<g>
	<rect x="208.437" y="497.427" fill="#770404" width="2.733" height="2.711"/>
</g>
<g>
	<polygon fill="#770404" points="189.306,510.983 186.571,510.983 186.571,508.272 189.306,508.272 189.306,508.272 
		194.771,508.272 194.771,505.562 205.704,505.562 205.704,508.272 194.772,508.272 194.772,510.983 	"/>
</g>
<g>
	<polygon fill="#770404" points="202.97,510.983 200.237,510.983 200.237,508.272 202.97,508.272 205.704,508.272 205.704,505.562 
		208.437,505.562 208.437,508.272 205.704,508.272 205.704,510.983 	"/>
</g>
<g>
	<rect x="197.503" y="510.983" fill="#770404" width="2.733" height="2.713"/>
</g>
<g>
	<rect x="194.771" y="513.696" fill="#770404" width="2.732" height="2.712"/>
</g>
<g>
	<rect x="181.106" y="521.832" fill="#770404" width="2.733" height="2.711"/>
</g>
<g>
	<polygon fill="#770404" points="183.839,521.83 183.839,519.119 189.306,519.119 189.306,519.119 189.306,519.119 189.306,516.408 
		192.038,516.408 192.038,519.119 192.038,521.83 	"/>
</g>
<g>
	<polygon fill="#770404" points="194.771,524.544 194.771,521.832 197.503,521.832 200.237,521.832 200.237,524.544 	"/>
</g>
<g>
	<rect x="211.169" y="527.255" fill="#770404" width="2.733" height="2.712"/>
</g>
<g>
	<polygon fill="#770404" points="211.169,505.562 211.169,502.85 213.903,502.85 213.903,502.85 219.369,502.85 219.369,505.561 
		213.903,505.561 213.903,505.562 	"/>
</g>
<g>
	<rect x="219.369" y="508.272" fill="#770404" width="2.731" height="2.711"/>
</g>
<g>
	<rect x="181.106" y="508.272" fill="#770404" width="2.733" height="2.711"/>
</g>
<g>
	<rect x="178.374" y="524.544" fill="#770404" width="2.731" height="2.711"/>
</g>
<g>
	<rect x="181.106" y="497.427" fill="#770404" width="2.733" height="2.711"/>
</g>
<g>
	<rect x="181.106" y="527.255" fill="#770404" width="2.733" height="2.711"/>
</g>
<g>
	<rect x="213.903" y="519.119" fill="#770404" width="2.732" height="2.713"/>
</g>
<g>
	<rect x="213.903" y="521.832" fill="#770404" width="2.732" height="2.711"/>
</g>
<g>
	<rect x="216.636" y="524.544" fill="#940202" width="2.733" height="2.711"/>
</g>
<g>
	<polygon fill="#770404" points="205.702,529.966 205.702,527.255 202.97,527.255 202.97,527.255 200.237,527.255 200.237,524.544 
		202.97,524.544 202.97,524.544 205.704,524.544 205.704,527.255 211.169,527.255 211.169,529.966 	"/>
</g>
<g>
	<rect x="208.437" y="510.983" fill="#770404" width="2.733" height="2.713"/>
</g>
<g>
	<rect x="211.169" y="513.696" fill="#770404" width="2.733" height="2.712"/>
</g>
<g>
	<rect x="211.169" y="516.408" fill="#770404" width="2.733" height="2.711"/>
</g>
<g>
	<rect x="219.369" y="521.832" fill="#940202" width="2.731" height="2.711"/>
</g>
<g>
	<rect x="219.369" y="519.119" fill="#940202" width="2.731" height="2.713"/>
</g>
<g>
	<rect x="216.636" y="527.255" fill="#940202" width="2.733" height="2.712"/>
</g>
<g>
	<path fill="#770404" d="M189.306,502.85h2.732H189.306z M192.038,500.138h5.467v2.712h-5.467V500.138z"/>
</g>
<g>
	<polygon fill="#770404" points="175.64,519.119 175.64,513.697 178.374,513.697 178.374,510.985 181.106,510.985 181.106,513.697 
		178.374,513.697 178.374,516.408 178.374,519.119 	"/>
</g>
<g>
	<rect x="175.64" y="519.119" fill="#770404" width="2.733" height="2.713"/>
</g>
<g>
	<rect x="202.971" y="535.39" fill="#755B2A" width="2.733" height="2.711"/>
</g>
<g>
	<rect x="181.106" y="494.716" fill="#755B2A" width="2.733" height="2.712"/>
</g>
<g>
	<rect x="183.839" y="494.716" fill="#755B2A" width="2.731" height="2.712"/>
</g>
<g>
	<rect x="186.571" y="492.005" fill="#755B2A" width="2.734" height="2.711"/>
</g>
<g>
	<rect x="189.306" y="492.005" fill="#755B2A" width="2.732" height="2.711"/>
</g>
<g>
	<polygon fill="#789A21" points="200.237,538.101 197.503,538.101 197.503,535.389 200.237,535.389 202.97,535.389 202.97,538.101 	
		"/>
</g>
<g>
	<polygon fill="#789A21" points="189.306,538.101 189.306,535.389 189.306,535.389 189.306,532.678 192.038,532.678 
		194.771,532.678 197.503,532.678 197.503,535.389 194.771,535.389 192.038,535.389 192.038,538.101 	"/>
</g>
<g>
	<polygon fill="#789A21" points="183.839,532.678 181.106,532.678 181.106,532.678 181.106,529.967 181.106,529.967 
		183.839,529.967 192.038,529.967 192.038,532.678 	"/>
</g>
<g>
	<polygon fill="#789A21" points="172.907,519.119 172.907,516.408 30.788,516.408 30.788,513.697 170.174,513.697 170.174,510.983 
		172.907,510.983 172.907,510.985 175.64,510.985 175.64,510.983 178.374,510.983 178.374,513.697 175.64,513.697 175.64,516.408 
		175.64,519.119 	"/>
</g>
<g>
	<rect x="172.907" y="519.119" fill="#789A21" width="2.732" height="2.713"/>
</g>
<g>
	<rect x="175.64" y="521.832" fill="#789A21" width="2.733" height="2.711"/>
</g>
<g>
	<polygon fill="#789A21" points="178.374,510.983 178.372,510.983 175.64,510.983 175.64,508.272 178.372,508.272 178.372,505.562 
		181.106,505.562 181.106,502.85 183.839,502.85 183.839,505.562 183.839,508.272 181.106,508.272 181.106,510.983 	"/>
</g>
<g>
	<polygon fill="#617907" points="175.64,508.272 175.64,505.562 175.64,502.85 175.64,500.138 178.374,500.138 178.374,497.427 
		181.106,497.427 181.106,500.138 183.839,500.138 183.839,502.85 181.106,502.85 178.374,502.85 178.374,502.85 181.106,502.85 
		181.106,505.562 178.374,505.562 178.374,508.272 	"/>
</g>
<g>
	<rect x="172.907" y="508.272" fill="#617907" width="2.732" height="2.711"/>
</g>
<g>
	<rect x="175.64" y="524.544" fill="#617907" width="2.733" height="2.711"/>
</g>
<g>
	<polygon fill="#617907" points="178.374,532.678 178.374,529.967 175.64,529.967 175.64,527.255 178.374,527.255 178.374,527.255 
		181.106,527.255 181.106,529.967 181.106,532.678 	"/>
</g>
<g>
	<rect x="30.787" y="516.408" fill="#617907" width="142.12" height="2.711"/>
</g>
<g>
	<rect x="238.5" y="586.911" fill="#404041" width="2.733" height="2.714"/>
</g>
<g>
	<rect x="241.233" y="592.336" fill="#404041" width="2.733" height="2.711"/>
</g>
<g>
	<rect x="66.317" y="527.255" fill="#0D2717" width="2.733" height="2.712"/>
</g>
<g>
	<rect x="69.051" y="529.967" fill="#0D2717" width="2.732" height="2.712"/>
</g>
<g>
	<rect x="71.784" y="532.678" fill="#0D2717" width="2.731" height="2.712"/>
</g>
<g>
	<rect x="74.517" y="535.39" fill="#0D2717" width="2.732" height="2.711"/>
</g>
<g>
	<polygon fill="#0D2717" points="82.716,543.524 82.716,540.813 82.715,540.813 82.715,540.813 77.249,540.813 77.249,540.812 
		77.249,538.102 77.249,538.101 79.983,538.101 79.983,538.102 82.716,538.102 85.448,538.102 85.448,540.813 85.448,540.813 
		85.448,543.524 	"/>
</g>
<g>
	<rect x="85.448" y="543.524" fill="#0D2717" width="2.733" height="2.712"/>
</g>
<g>
	<polygon fill="#0D2717" points="134.644,548.947 131.911,548.947 129.178,548.947 126.443,548.947 126.443,546.236 
		129.178,546.236 131.911,546.236 134.644,546.236 137.376,546.236 137.376,543.524 140.109,543.524 140.109,546.236 
		137.376,546.236 137.376,548.947 	"/>
</g>
<g>
	<polygon fill="#0D2717" points="145.576,543.524 142.842,543.524 140.11,543.524 140.11,543.524 140.109,543.524 140.109,540.813 
		142.842,540.813 142.842,540.813 145.576,540.813 145.576,540.813 148.309,540.813 148.309,540.813 148.309,540.813 
		148.309,543.524 	"/>
</g>
<g>
	<rect x="148.309" y="538.102" fill="#0D2717" width="2.734" height="2.712"/>
</g>
<g>
	<rect x="151.043" y="535.39" fill="#0D2717" width="2.731" height="2.712"/>
</g>
<g>
	<rect x="153.775" y="532.679" fill="#0D2717" width="2.732" height="2.711"/>
</g>
<g>
	<rect x="156.508" y="529.969" fill="#0D2717" width="2.733" height="2.711"/>
</g>
<g>
	<rect x="66.317" y="538.102" fill="#0D2717" width="2.733" height="2.712"/>
</g>
<g>
	<rect x="69.051" y="540.813" fill="#0D2717" width="2.732" height="2.711"/>
</g>
<g>
	<rect x="71.784" y="543.524" fill="#0D2717" width="2.731" height="2.712"/>
</g>
<g>
	<rect x="74.517" y="546.235" fill="#0D2717" width="2.732" height="2.712"/>
</g>
<g>
	<polygon fill="#0D2717" points="82.716,554.372 82.716,551.661 82.714,551.661 82.714,551.66 79.982,551.66 79.982,551.66 
		77.25,551.66 77.25,548.947 79.982,548.947 79.982,548.949 82.716,548.949 82.716,548.949 85.448,548.949 85.448,551.66 
		85.448,551.66 85.448,554.372 	"/>
</g>
<g>
	<rect x="85.448" y="554.372" fill="#0D2717" width="2.733" height="2.712"/>
</g>
<g>
	<polygon fill="#0D2717" points="115.512,565.219 112.779,565.219 110.046,565.219 110.046,565.219 110.046,565.219 
		110.046,562.508 110.046,562.508 110.046,562.508 107.313,562.508 104.58,562.508 104.58,562.508 99.114,562.508 99.114,562.508 
		99.114,562.508 99.114,559.796 93.648,559.796 90.914,559.796 90.914,559.797 88.181,559.797 88.181,557.084 88.182,557.084 
		88.182,557.084 90.914,557.084 93.648,557.084 93.648,557.084 96.381,557.084 96.381,557.082 99.114,557.082 99.114,557.084 
		99.114,559.796 101.847,559.796 104.58,559.796 110.046,559.796 110.046,562.508 112.779,562.508 112.779,562.508 115.512,562.508 
		115.512,562.508 118.245,562.508 118.245,562.508 118.245,565.219 	"/>
</g>
<g>
	<polygon fill="#0D2717" points="137.376,557.084 137.376,554.371 140.109,554.371 140.109,551.66 140.11,551.66 142.842,551.66 
		142.842,551.66 145.576,551.66 145.576,551.66 148.309,551.66 148.309,548.949 151.043,548.949 151.043,551.66 148.309,551.66 
		148.309,554.372 140.11,554.372 140.11,554.371 140.109,554.371 140.109,557.084 	"/>
</g>
<g>
	<rect x="151.043" y="546.238" fill="#0D2717" width="2.731" height="2.711"/>
</g>
<g>
	<rect x="153.775" y="543.526" fill="#0D2717" width="2.732" height="2.712"/>
</g>
<g>
	<rect x="156.508" y="540.814" fill="#0D2717" width="2.733" height="2.712"/>
</g>
<g>
	<rect x="63.585" y="548.949" fill="#0D2717" width="2.732" height="2.711"/>
</g>
<g>
	<rect x="66.318" y="551.66" fill="#0D2717" width="2.733" height="2.712"/>
</g>
<g>
	<rect x="69.051" y="554.372" fill="#0D2717" width="2.733" height="2.712"/>
</g>
<g>
	<rect x="58.118" y="576.066" fill="#0D2717" width="2.732" height="2.711"/>
</g>
<g>
	<rect x="55.385" y="578.777" fill="#0D2717" width="2.733" height="2.711"/>
</g>
<g>
	<rect x="52.652" y="581.49" fill="#0D2717" width="2.733" height="2.71"/>
</g>
<g>
	<rect x="49.919" y="586.913" fill="#0D2717" width="2.732" height="2.712"/>
</g>
<g>
	<rect x="47.186" y="592.336" fill="#0D2717" width="2.733" height="2.711"/>
</g>
<g>
	<polygon fill="#0D2717" points="47.186,600.47 47.186,597.76 47.186,595.047 49.919,595.047 49.919,597.76 49.919,600.47 	"/>
</g>
<g>
	<polygon fill="#0D2717" points="47.186,605.893 47.186,603.182 47.186,600.471 49.919,600.471 49.919,603.182 49.919,605.893 	"/>
</g>
<g>
	<rect x="47.186" y="605.893" fill="#0D2717" width="2.733" height="2.713"/>
</g>
<g>
	<rect x="44.452" y="608.604" fill="#0D2717" width="2.732" height="12.558"/>
</g>
<g>
	<rect x="63.584" y="578.777" fill="#0D2717" width="2.732" height="2.711"/>
</g>
<g>
	<rect x="60.851" y="581.49" fill="#0D2717" width="2.733" height="2.71"/>
</g>
<g>
	<rect x="58.118" y="584.202" fill="#0D2717" width="2.732" height="2.711"/>
</g>
<g>
	<rect x="55.385" y="589.625" fill="#0D2717" width="2.733" height="2.712"/>
</g>
<g>
	<polygon fill="#0D2717" points="52.652,600.47 52.652,597.76 52.652,595.047 55.385,595.047 55.385,597.76 55.385,600.47 	"/>
</g>
<g>
	<polygon fill="#0D2717" points="52.652,605.893 52.652,603.182 52.652,600.471 55.385,600.471 55.385,603.182 55.385,605.893 	"/>
</g>
<g>
	<polygon fill="#0D2717" points="52.652,621.161 52.652,608.605 52.652,605.895 55.385,605.895 55.385,608.605 55.385,621.161 	"/>
</g>
<g>
	<rect x="69.05" y="584.2" fill="#0D2717" width="2.733" height="2.711"/>
</g>
<g>
	<rect x="66.317" y="586.913" fill="#0D2717" width="2.733" height="2.712"/>
</g>
<g>
	<rect x="63.584" y="589.625" fill="#0D2717" width="2.732" height="2.712"/>
</g>
<g>
	<rect x="66.318" y="576.066" fill="#0D2717" width="2.733" height="2.711"/>
</g>
<g>
	<rect x="66.318" y="559.796" fill="#0D2717" width="2.733" height="2.712"/>
</g>
<g>
	<rect x="74.517" y="565.219" fill="#0D2717" width="2.732" height="2.712"/>
</g>
<g>
	<rect x="79.983" y="570.642" fill="#0D2717" width="2.733" height="2.712"/>
</g>
<g>
	<polygon fill="#0D2717" points="74.517,581.488 74.517,581.487 74.517,578.777 74.517,576.064 74.517,576.064 74.517,576.064 
		77.25,576.064 77.25,573.354 79.982,573.354 79.982,576.064 77.25,576.064 77.25,578.775 77.25,581.488 	"/>
</g>
<g>
	<rect x="71.784" y="581.488" fill="#0D2717" width="2.731" height="2.711"/>
</g>
<g>
	<rect x="60.851" y="595.047" fill="#0D2717" width="2.733" height="2.713"/>
</g>
<g>
	<polygon fill="#0D2717" points="58.118,605.892 58.118,603.181 58.118,600.47 60.851,600.47 60.851,603.181 60.851,605.892 	"/>
</g>
<g>
	<polygon fill="#0D2717" points="58.118,621.161 58.118,608.605 58.118,605.893 60.851,605.893 60.851,608.605 60.851,621.161 	"/>
</g>
<g>
	<polygon fill="#0D2717" points="77.25,562.508 77.25,562.508 77.249,562.508 77.249,562.508 74.517,562.508 74.517,562.508 
		74.517,562.508 74.517,559.797 71.784,559.797 71.784,557.086 74.517,557.086 74.517,559.796 79.983,559.796 79.983,559.797 
		79.983,562.508 	"/>
</g>
<g>
	<rect x="82.716" y="562.508" fill="#0D2717" width="2.733" height="2.712"/>
</g>
<g>
	<rect x="88.182" y="565.219" fill="#0D2717" width="2.733" height="2.712"/>
</g>
<g>
	<rect x="90.915" y="567.931" fill="#0D2717" width="2.732" height="2.711"/>
</g>
<g>
	<rect x="93.648" y="570.642" fill="#0D2717" width="2.732" height="2.711"/>
</g>
<g>
	<polygon fill="#0D2717" points="110.046,554.372 110.046,551.66 110.045,551.66 110.045,551.661 107.312,551.661 107.312,551.66 
		104.58,551.66 101.847,551.66 99.114,551.66 99.114,551.66 99.114,548.949 90.914,548.949 88.182,548.949 88.181,548.949 
		88.181,546.238 88.182,546.238 88.182,546.238 90.915,546.238 90.915,546.236 93.647,546.236 93.647,546.238 93.648,546.238 
		93.648,546.235 96.381,546.235 96.381,546.238 96.381,546.238 96.381,546.235 99.114,546.235 99.114,546.238 99.114,548.947 
		101.847,548.947 101.847,548.949 104.58,548.949 107.312,548.949 110.046,548.949 110.046,551.66 112.779,551.66 112.779,554.372 	
		"/>
</g>
<g>
	<polygon fill="#0D2717" points="112.779,551.66 112.779,551.658 112.779,551.658 112.779,548.947 115.512,548.947 115.512,548.949 
		115.512,548.949 115.512,548.947 118.245,548.947 118.245,548.949 118.246,548.949 118.246,548.947 120.979,548.947 
		123.711,548.947 126.445,548.947 126.445,548.949 126.445,548.949 126.445,551.66 	"/>
</g>
<g>
	<polygon fill="#0D2717" points="118.245,562.508 118.245,562.508 118.245,559.796 120.979,559.796 123.711,559.796 
		126.443,559.796 126.443,557.084 126.445,557.084 129.177,557.084 131.911,557.084 134.644,557.084 137.378,557.084 
		137.378,559.796 134.644,559.796 131.911,559.796 129.177,559.796 126.445,559.796 126.445,562.508 	"/>
</g>
<g>
	<polygon fill="#0D2717" points="60.852,576.064 60.852,573.354 60.852,570.642 60.852,570.642 60.852,570.642 63.585,570.642 
		63.585,567.931 63.585,567.931 63.585,565.219 66.317,565.219 66.317,567.931 66.317,567.931 66.317,570.642 66.317,570.642 
		63.585,570.642 63.585,573.354 63.585,576.064 	"/>
</g>
<g>
	<polygon fill="#0D2717" points="69.051,576.064 69.051,573.354 69.051,573.354 69.051,570.642 69.051,570.642 71.783,570.642 
		71.783,567.932 74.517,567.932 74.517,570.643 71.783,570.643 71.783,573.354 71.783,576.064 	"/>
</g>
<g>
	<polygon fill="#937D68" points="56.752,448.616 52.652,448.616 52.652,445.904 44.452,445.904 44.452,441.839 44.452,440.481 
		36.253,440.481 36.253,437.77 30.788,437.77 30.788,435.057 28.054,435.057 28.054,432.346 25.322,432.346 25.322,429.635 
		22.588,429.635 22.588,410.652 25.322,410.652 25.322,425.617 30.787,425.617 30.787,429.635 34.62,429.635 34.62,433.702 
		39.67,433.702 39.67,436.414 51.286,436.414 51.286,440.481 55.385,440.481 55.385,443.192 58.118,443.192 58.118,448.617 	"/>
</g>
</svg>
