<?xml version="1.0" encoding="utf-8"?>
<!-- Generator: Adobe Illustrator 16.0.4, SVG Export Plug-In . SVG Version: 6.00 Build 0)  -->
<!DOCTYPE svg PUBLIC "-//W3C//DTD SVG 1.1//EN" "http://www.w3.org/Graphics/SVG/1.1/DTD/svg11.dtd">
<svg version="1.1" id="Layer_1" xmlns="http://www.w3.org/2000/svg" xmlns:xlink="http://www.w3.org/1999/xlink" x="0px" y="0px"
	 width="553.25px" height="110.52px" viewBox="0 0 553.25 110.52" enable-background="new 0 0 553.25 110.52" xml:space="preserve">
<g>
	<path fill="#160F0B" d="M392.451,63.073h3.821V30.165h10.771V48.27h3.692v-3.438h3.822v-22.11h3.521V19.2h10.938v-3.763h40.271
		v11.019h3.523v47.511h7.381v3.563h3.564v3.823h7.337v3.523h7.384v3.569h3.564v3.771h7.34v3.571h14.744v3.823h7.125v3.562h7.34
		v3.524h7.383v3.836h3.524v3.396h-21.723v3.823h-14.742v3.565h-3.527v3.472h-7.253v-3.397H480.4v-3.501h-22.233v3.373h-47.344
		v-3.391h-62.364v3.449h-7.083v3.471h-14.618v-3.398h-3.521v-7.212h14.344v-3.563h7.38v-3.822h3.569v-3.573h3.771v-3.521h7.388
		v-3.822h3.564v-3.527h7.336v-3.823h7.381V84.97h3.57v-3.574h7.336v-7.335h3.569C392.451,70.361,392.451,66.82,392.451,63.073
		L392.451,63.073z"/>
	<polygon fill="#160F0B" points="163.973,80.881 167.896,80.881 167.896,77.313 171.821,77.313 171.821,74.236 175.034,74.236 
		175.034,70.893 178.244,70.893 178.244,68.042 187.161,68.042 187.161,70.181 190.371,70.181 190.371,72.676 193.223,72.676 
		193.223,74.459 196.077,74.459 196.077,73.029 199.287,73.029 199.287,70.531 202.497,70.531 202.497,74.459 205.708,74.459 
		205.708,72.676 208.204,72.676 208.204,74.459 212.841,74.459 212.841,77.67 215.695,77.67 215.695,75.887 219.261,75.887 
		219.261,78.383 224.255,78.383 224.255,72.676 228.892,72.676 228.892,70.531 233.886,70.531 233.886,74.459 238.166,74.459 
		238.166,76.958 240.663,76.958 240.663,79.448 246.726,79.448 246.726,82.306 249.58,82.306 249.58,84.801 253.501,84.801 
		253.501,87.299 257.074,87.299 257.074,90.862 260.282,90.862 260.282,94.072 263.844,94.072 263.844,95.858 265.99,95.858 
		265.99,102.99 163.973,102.99 	"/>
	<polygon fill="#160F0B" points="265.99,97.959 268.806,97.959 268.806,100.626 272.14,100.626 272.14,102.99 275.14,102.99 
		275.14,105.626 284.14,105.626 284.14,102.99 289.806,102.99 289.806,105.626 295.806,105.626 305.806,105.626 305.806,107.626 
		317.473,107.626 324.806,107.626 324.806,104.959 333.473,104.959 333.473,102.99 340.473,102.99 340.473,99.959 352.299,99.959 
		526.14,99.959 526.14,112.146 163.973,112.146 163.973,97.959 	"/>
</g>
<polygon fill="#160F0B" points="173,83.626 169.133,83.626 169.133,87.626 164.425,87.626 164.425,89.958 159.381,89.958 
	159.381,93.626 155.683,93.626 150.975,93.626 150.975,90.958 148.958,90.958 148.958,93.626 143.913,93.626 143.913,96.626 
	139.205,96.626 139.205,93.626 134.161,93.626 134.161,90.126 130.126,90.126 130.126,86.958 125.755,86.958 125.755,90.126 
	117.012,90.126 117.012,93.958 110.959,93.958 110.959,96.626 105.579,96.626 105.579,99.626 98.854,99.626 98.854,102.99 
	93.137,102.99 88.43,102.99 88.43,99.292 84.394,99.292 84.394,95.626 81.368,95.626 81.368,79.958 79.35,79.958 79.35,76.626 
	76.66,76.626 76.66,79.958 69.935,79.958 69.935,83.626 62.201,83.626 62.201,87.626 55.475,87.626 55.475,92.626 47.405,92.626 
	47.405,95.626 42.697,95.626 42.697,97.959 34.627,97.959 34.627,100.958 26.556,100.958 26.556,105.051 17.813,105.051 
	17.813,108.292 10.079,108.292 10.079,112.146 1,112.146 173,112.146 "/>
<g>
	<polygon points="305.424,94.609 304.458,94.609 304.458,89.818 305.424,89.818 305.424,91.734 306.389,91.734 306.389,94.609 	"/>
	<path d="M310.25,109.934h-1.93v-8.62h-0.966v-0.958h-0.967v-1.915h-0.965v-3.832h1.932v3.83h0.966V87.902h0.964v-1.915h0.966
		v12.452h1.93v-0.955h0.965h-0.965v-0.959h0.965v-0.957h0.967v-1.919h0.966v-1.915h0.966v-0.001h0.965v1.915h-0.965v1.916h-0.966
		v1.916h-0.966v0.959h-0.967v0.957h-0.965v0.959h-0.966v0.957h-0.964v7.665V109.934L310.25,109.934z"/>
</g>
<g>
	<polygon points="519.183,84.937 518.502,84.937 518.502,82.909 519.183,82.909 519.183,81.558 519.865,81.558 519.865,84.937 	"/>
	<path d="M515.78,95.069v-5.404h-0.68v-0.676h-0.682v-0.677h-0.682v-0.676h-0.682V86.96h-0.682v-1.353h-0.683v-1.351h-0.681v-1.351
		h0.681v0.002h0.683v1.35h0.682v1.354h0.682v0.676h0.682v0.677h-0.682h0.682v0.674h1.359v-8.78h0.684v1.351h0.678v7.432h0.682v-2.7
		h1.362v2.699h-0.681v1.351h-0.684v0.676h-0.682v6.079h-1.359L515.78,95.069L515.78,95.069z"/>
</g>
<g>
	<polygon points="98.957,93.701 98.446,93.701 98.446,91.167 98.957,91.167 98.957,92.181 99.468,92.181 99.468,93.701 	"/>
	<path d="M101.51,101.807h-1.02v-4.559h-0.513v-0.507h-0.511v-1.014h-0.51v-2.026h1.021v2.025h0.513v-5.573h0.508v-1.013h0.511
		v6.586h1.021v-0.506h0.512h-0.512v-0.508h0.512v-0.506h0.511v-1.016h0.51V92.18h0.514l0,0h0.51v1.013h-0.51v1.015h-0.514v1.013
		h-0.51v0.509h-0.511v0.506h-0.512v0.508h-0.51v0.507h-0.51v4.054V101.807z"/>
</g>
</svg>
