<?xml version="1.0" encoding="utf-8"?>
<!-- Generator: Adobe Illustrator 16.0.4, SVG Export Plug-In . SVG Version: 6.00 Build 0)  -->
<!DOCTYPE svg PUBLIC "-//W3C//DTD SVG 1.1//EN" "http://www.w3.org/Graphics/SVG/1.1/DTD/svg11.dtd">
<svg version="1.1" id="Layer_1" xmlns="http://www.w3.org/2000/svg" xmlns:xlink="http://www.w3.org/1999/xlink" x="0px" y="0px"
	 width="553.25px" height="110.52px" viewBox="-175.25 -13.813 553.25 110.52"
	 enable-background="new -175.25 -13.813 553.25 110.52" xml:space="preserve">
<linearGradient id="SVGID_1_" gradientUnits="userSpaceOnUse" x1="101.761" y1="-483.9761" x2="101.761" y2="-373.4565" gradientTransform="matrix(1 0 0 -1 -0.3857 -387.2695)">
	<stop  offset="0" style="stop-color:#D28A57;stop-opacity:0.6"/>
	<stop  offset="0.693" style="stop-color:#BD9E87;stop-opacity:0"/>
</linearGradient>
<path fill="url(#SVGID_1_)" d="M-175.25-13.813H378v110.52h-553.25V-13.813z"/>
<g>
	<path fill="#160F0B" d="M220.951,47.634h3.823V14.727h10.769v18.105h3.694v-3.438h3.822V7.283h3.521V3.762h10.938V0h40.271v11.018
		h3.524v47.511h7.381v3.564h3.564v3.823h7.337v3.524h7.384v3.57h3.565v3.772h7.339v3.571h14.745v3.824h7.125v3.563h7.339v3.524
		h7.383V95.1H378v3.396h-21.722v3.824h-14.743v3.566h-3.528v3.471h-7.253v-3.398H308.9v-3.501h-22.234v3.373h-47.343v-3.39h-62.366
		v3.449h-7.083v3.471h-14.618v-3.399h-3.521V98.75h14.342v-3.564h7.38v-3.822h3.571V87.79h3.771V84.27h7.388v-3.822h3.564V76.92
		h7.336v-3.824h7.381v-3.562h3.57V65.96h7.336v-7.335h3.571C220.951,54.922,220.951,51.381,220.951,47.634L220.951,47.634z"/>
	<polygon fill="#160F0B" points="-7.527,65.443 -3.604,65.443 -3.604,61.874 0.321,61.874 0.321,58.797 3.534,58.797 3.534,55.454 
		6.744,55.454 6.744,52.604 15.661,52.604 15.661,54.742 18.871,54.742 18.871,57.238 21.723,57.238 21.723,59.021 24.577,59.021 
		24.577,57.59 27.787,57.59 27.787,55.094 30.997,55.094 30.997,59.021 34.208,59.021 34.208,57.238 36.704,57.238 36.704,59.021 
		41.341,59.021 41.341,62.232 44.195,62.232 44.195,60.449 47.761,60.449 47.761,62.945 52.755,62.945 52.755,57.238 57.392,57.238 
		57.392,55.094 62.386,55.094 62.386,59.021 66.666,59.021 66.666,61.52 69.163,61.52 69.163,64.01 75.226,64.01 75.226,66.867 
		78.08,66.867 78.08,69.363 82.001,69.363 82.001,71.861 85.574,71.861 85.574,75.423 88.782,75.423 88.782,78.633 92.344,78.633 
		92.344,80.419 94.49,80.419 94.49,87.551 -7.527,87.551 	"/>
	<polygon fill="#160F0B" points="94.49,82.521 97.306,82.521 97.306,85.188 100.64,85.188 100.64,87.551 103.64,87.551 
		103.64,90.188 112.64,90.188 112.64,87.551 118.306,87.551 118.306,90.188 124.306,90.188 134.306,90.188 134.306,92.188 
		145.973,92.188 153.306,92.188 153.306,89.521 161.973,89.521 161.973,87.551 168.973,87.551 168.973,84.521 180.799,84.521 
		354.64,84.521 354.64,96.707 -7.527,96.707 -7.527,82.521 	"/>
</g>
<polygon fill="#160F0B" points="1.5,68.188 -2.367,68.188 -2.367,72.188 -7.075,72.188 -7.075,74.52 -12.119,74.52 -12.119,78.188 
	-15.817,78.188 -20.525,78.188 -20.525,75.52 -22.542,75.52 -22.542,78.188 -27.587,78.188 -27.587,81.188 -32.295,81.188 
	-32.295,78.188 -37.339,78.188 -37.339,74.688 -41.374,74.688 -41.374,71.52 -45.745,71.52 -45.745,74.688 -54.488,74.688 
	-54.488,78.52 -60.541,78.52 -60.541,81.188 -65.921,81.188 -65.921,84.188 -72.646,84.188 -72.646,87.551 -78.363,87.551 
	-83.07,87.551 -83.07,83.854 -87.106,83.854 -87.106,80.188 -90.132,80.188 -90.132,64.52 -92.15,64.52 -92.15,61.188 
	-94.84,61.188 -94.84,64.52 -101.565,64.52 -101.565,68.188 -109.299,68.188 -109.299,72.188 -116.025,72.188 -116.025,77.188 
	-124.095,77.188 -124.095,80.188 -128.803,80.188 -128.803,82.521 -136.873,82.521 -136.873,85.52 -144.944,85.52 -144.944,89.613 
	-153.687,89.613 -153.687,92.854 -161.421,92.854 -161.421,96.707 -170.5,96.707 1.5,96.707 "/>
<g>
	<polygon points="133.924,79.17 132.958,79.17 132.958,74.379 133.924,74.379 133.924,76.295 134.889,76.295 134.889,79.17 
		133.924,79.17 	"/>
	<path d="M138.75,94.495h-1.928v-8.62h-0.966v-0.958h-0.967v-1.915h-0.965V79.17h1.932V83h0.966V72.463h0.962v-1.915h0.966V83h1.93
		v-0.955h0.965h-0.965v-0.959h0.965v-0.957h0.967V78.21h0.964v-1.915h0.966v-0.001h0.965v1.915h-0.965v1.916h-0.966v1.916h-0.964V83
		h-0.967v0.957h-0.965v0.959h-0.966v0.957h-0.964v7.665V94.495z"/>
</g>
<g>
	<polygon points="347.683,69.498 347.002,69.498 347.002,67.471 347.683,67.471 347.683,66.119 348.365,66.119 348.365,69.498 
		347.683,69.498 	"/>
	<path d="M344.28,79.63v-5.405h-0.68V73.55h-0.682v-0.677h-0.68v-0.675h-0.682v-0.676h-0.681v-1.352h-0.682V68.82h-0.681V67.47
		h0.681v0.001h0.682v1.35h0.681v1.354h0.682v0.675h0.68v0.677h-0.68h0.68v0.673h1.361v-8.78h0.682v1.35h0.678v7.431h0.682v-2.7
		h1.362V72.2h-0.681v1.351h-0.682v0.675h-0.682v6.079h-1.359V79.63z"/>
</g>
<g>
	<polygon points="-72.543,78.263 -73.054,78.263 -73.054,75.729 -72.543,75.729 -72.543,76.742 -72.032,76.742 -72.032,78.263 
		-72.543,78.263 	"/>
	<path d="M-69.99,86.368h-1.02V81.81h-0.511v-0.507h-0.511V80.29h-0.51v-2.027h1.021v2.026h0.511v-5.573h0.508v-1.013h0.511v6.586
		h1.021v-0.506h0.51h-0.51v-0.507h0.51v-0.506h0.511v-1.015h0.51v-1.014h0.512l0,0h0.51v1.013h-0.51v1.014h-0.512v1.013h-0.51v0.508
		h-0.511v0.506h-0.51v0.507h-0.51v0.507h-0.51v4.054V86.368z"/>
</g>
</svg>
