<?xml version="1.0" encoding="utf-8"?>

<!DOCTYPE svg PUBLIC "-//W3C//DTD SVG 1.1//EN" "http://www.w3.org/Graphics/SVG/1.1/DTD/svg11.dtd">
<svg version="1.1" xmlns="http://www.w3.org/2000/svg" xmlns:xlink="http://www.w3.org/1999/xlink" x="0px" y="0px" width="340px" height="340px" viewBox="0 0 340 340" enable-background="new 0 0 340 340" xml:space="preserve">
    
    <defs>
        <style>
            .icon {
                display: none;
            }
            
            .icon:target {
                display: inline;
            }
        </style>
    </defs>
    
    <g class="icon" id="html5">
        <g>
            <path fill="#FFFFFF" d="M73.013,3h15.117v14.937h13.83V3h15.12v45.231h-15.12V33.086h-13.83v15.145H73.013V3z"/>
            <path fill="#FFFFFF" d="M136.959,17.999h-13.311V3h41.744v15h-13.315v30.232h-15.118L136.959,17.999L136.959,17.999z"/>
            <path fill="#FFFFFF" d="M172.021,3h15.764l9.696,15.893L207.168,3h15.771v45.231h-15.056V25.812l-10.401,16.083h-0.261
                l-10.408-16.083v22.418h-14.791V3z"/>
            <path fill="#FFFFFF" d="M230.464,3h15.123v30.282h21.262v14.949h-36.385V3z"/>
        </g>
        <path fill="#FFFFFF" d="M130.7,177.862h39.277v-30.463h-41.997L130.7,177.862z M51.222,68.065l21.626,242.559l97.071,26.947
            l97.162-26.935l21.652-242.572H51.222z M248.545,295.192l-78.567,21.781v-30.871l-0.048,0.015l-60.939-16.918l-4.262-47.767h29.864
            l2.212,24.781l33.132,8.948l0.042-0.014v-47.535h-66.484l-8.025-89.964h74.509V87.9h97.073L248.545,295.192z"/>
        <path opacity="0.8" fill="#FFFFFF" enable-background="new    " d="M206.596,207.613h-36.618v47.536l33.166-8.953L206.596,207.613z
            M169.978,87.9v29.749h74.509l-2.665,29.75h-71.844v30.464h69.136l-8.161,91.336l-60.975,16.903v30.871l78.567-21.781
            L267.05,87.898h-97.072V87.9z"/>
        <g opacity="0.2">
            <polygon fill="#FFFFFF" points="169.978,117.649 95.468,117.649 103.494,207.613 169.978,207.613 169.978,177.862 130.7,177.862 
                127.981,147.399 169.978,147.399 		"/>
            <polygon fill="#FFFFFF" points="169.978,255.148 169.935,255.162 136.804,246.214 134.592,221.432 104.728,221.432 
                108.989,269.198 169.93,286.116 169.978,286.102 		"/>
        </g>
    </g>

    <g class="icon" id="git">
        <path fill="#FFFFFF" d="M332.985,154.575L184.806,6.401c-8.53-8.536-22.37-8.536-30.912,0l-30.768,30.772l39.031,39.032
        c9.072-3.065,19.474-1.008,26.702,6.221c7.271,7.275,9.31,17.767,6.169,26.87l37.62,37.616c9.103-3.139,19.6-1.112,26.87,6.171
        c10.158,10.154,10.158,26.615,0,36.78c-10.164,10.161-26.621,10.161-36.79,0c-7.641-7.647-9.53-18.875-5.656-28.286l-35.088-35.086
        v92.326c2.475,1.225,4.812,2.859,6.875,4.916c10.157,10.157,10.157,26.614,0,36.787c-10.157,10.153-26.626,10.153-36.775,0
        c-10.157-10.172-10.157-26.63,0-36.787c2.51-2.507,5.417-4.405,8.519-5.674v-93.18c-3.102-1.27-6.001-3.15-8.519-5.676
        c-7.694-7.69-9.545-18.983-5.598-28.431l-38.478-38.484L6.399,153.89c-8.534,8.542-8.534,22.381,0,30.919l148.187,148.173
        c8.531,8.533,22.367,8.533,30.912,0l147.487-147.487C341.522,176.956,341.522,163.109,332.985,154.575z"/>
    </g>

    <g class="icon" id="api">
        <path fill="#FFFFFF" d="M0,118.7v183.48h340V118.7V34.449H0V118.7z M14.979,49.427h310.044v54.295H14.979V49.427z M14.979,118.7
        h310.044v168.503H14.979V118.7z"/>
        <circle fill="#FFFFFF" cx="41.564" cy="77.511" r="19.097"/>
        <circle fill="#FFFFFF" cx="93.613" cy="77.511" r="19.097"/>
        <circle fill="#FFFFFF" cx="145.661" cy="77.511" r="19.097"/>
        <path fill="#FFFFFF" d="M143.04,155.022h-16.476c-23.59,0-43.436,17.224-46.806,40.066H48.305c-4.119,0-7.489,3.369-7.489,7.489
        c0,4.119,3.37,7.489,7.489,7.489h31.454c3.744,22.841,23.215,40.065,46.806,40.065h16.476c4.119,0,7.489-3.37,7.489-7.488v-80.132
        C150.529,158.391,147.159,155.022,143.04,155.022z M135.551,235.154h-8.987c-17.974,0-32.577-14.604-32.577-32.577
        S108.59,170,126.564,170h8.987V235.154z"/>
        <path fill="#FFFFFF" d="M292.07,195.088h-31.454c-3.744-22.842-23.215-40.066-46.806-40.066h-16.476
        c-4.119,0-7.489,3.37-7.489,7.489v12.356h-17.599c-4.119,0-7.489,3.371-7.489,7.489s3.37,7.489,7.489,7.489h17.599v25.837h-17.599
        c-4.119,0-7.489,3.37-7.489,7.489s3.37,7.489,7.489,7.489h17.599v12.356c0,4.119,3.37,7.488,7.489,7.488h16.476
        c23.591,0,43.436-17.225,46.806-40.065h31.454c4.119,0,7.489-3.37,7.489-7.489S296.189,195.088,292.07,195.088z M213.437,235.154
        h-8.987V170h8.987c17.973,0,32.577,14.604,32.577,32.577C246.388,220.551,231.409,235.154,213.437,235.154z"/>
    </g>

    <g class="icon" id="deploy">
        <g>
            <g>
                <path fill="#FFFFFF" d="M14.796,333.711c-1.443,0-2.888-0.536-4.009-1.611c-2.292-2.203-2.356-5.84-0.14-8.123l79.02-81.425
                c2.219-2.278,5.866-2.343,8.161-0.14c2.292,2.202,2.356,5.839,0.141,8.122l-79.02,81.425
                C17.815,333.124,16.308,333.711,14.796,333.711z"/>
                <path fill="#FFFFFF" d="M70.399,337.145c-1.364,0-2.731-0.478-3.828-1.449c-2.383-2.109-2.599-5.737-0.483-8.11l51.214-57.366
                c2.123-2.367,5.761-2.585,8.147-0.478c2.383,2.108,2.599,5.737,0.483,8.11l-51.214,57.365
                C73.575,336.493,71.992,337.145,70.399,337.145z"/>
                <path fill="#FFFFFF" d="M11.318,282.163c-1.364,0-2.731-0.479-3.828-1.45c-2.383-2.109-2.599-5.737-0.482-8.109l51.217-57.366
                c2.119-2.367,5.761-2.586,8.147-0.478c2.383,2.108,2.599,5.737,0.482,8.109l-51.217,57.366
                C14.494,281.51,12.912,282.163,11.318,282.163z"/>
            </g>
            <g>
                <path fill="#FFFFFF" d="M203.388,220.114c-9.766,4.521-19.626,8.751-29.556,12.688l3.661,47.356
                c14.892-6.756,49.446-27.721,76.845-84.648c-11.828,6.278-23.657,11.927-33.758,16.747
                C214.915,214.972,209.167,217.574,203.388,220.114z"/>
                <path fill="#FFFFFF" d="M230.554,85.323c-5.292,0-10.581,1.993-14.608,5.974c-3.888,3.847-6.03,8.958-6.03,14.394
                s2.14,10.546,6.033,14.394c8.055,7.966,21.165,7.964,29.215,0c0-0.003,0.003-0.003,0.003-0.003
                c3.888-3.847,6.033-8.958,6.033-14.394c0-5.435-2.144-10.545-6.033-14.394C241.139,87.313,235.846,85.323,230.554,85.323z"/>
                <path fill="#FFFFFF" d="M129.984,102.656c3.208-6.433,6.634-13.156,10.304-19.915c-57.512,27.051-78.759,61.165-85.625,75.928
                l47.523,3.59c4.971-12.279,10.393-24.468,16.286-36.488C122.049,118.445,125.875,110.622,129.984,102.656z"/>
                <path fill="#FFFFFF" d="M251.746,10.175l75.351,74.509c3.688-14.562,5.694-29.161,6.644-42.834
                c0.078-1.146,0.159-2.289,0.224-3.445c0.1-1.731,0.181-3.441,0.248-5.136c0.075-1.946,0.135-3.906,0.172-5.875
                c0.027-1.353,0.049-2.693,0.057-4.017c0.017-2.707,0.011-5.427-0.04-8.169c-0.011-0.62-0.027-1.226-0.044-1.838
                c-0.082-3.295-0.198-6.605-0.386-9.943C312.008,2.107,281.971,2.573,251.746,10.175z"/>
                <path fill="#FFFFFF" d="M293.229,151.044c1.521-1.674,3.009-3.386,4.447-5.151c0.189-0.232,0.395-0.458,0.58-0.693
                c1.519-1.89,2.971-3.85,4.397-5.842c0.493-0.69,0.979-1.386,1.458-2.084c1.105-1.607,2.178-3.249,3.225-4.92
                c0.675-1.079,1.326-2.167,1.968-3.259c0.764-1.294,1.507-2.604,2.238-3.933c0.637-1.168,1.27-2.335,1.873-3.515
                c0.45-0.879,0.877-1.783,1.313-2.675c1.156-2.375,2.268-4.769,3.3-7.187c0.162-0.38,0.32-0.763,0.482-1.146
                c1.841-4.402,3.478-8.864,4.941-13.358l-84.406-83.471c-21.508,6.942-39.734,17.127-54.376,30.315
                c-0.377,0.34-0.756,0.682-1.13,1.027c-1.914,1.766-3.782,3.572-5.566,5.443c-0.634,0.668-1.246,1.377-1.869,2.067
                c-14.099,15.585-25.902,35.926-35.979,55.484c-2.245,4.507-4.381,8.873-6.362,12.933c-7.856,16.021-15.005,32.612-21.254,49.316
                c-0.439,1.178-1.248,2.125-2.251,2.78c-4.418,11.339-8.443,22.74-12.005,34.157l29.731,29.401
                c11.865-3.619,23.713-7.717,35.489-12.227c0.612-0.674,1.334-1.259,2.238-1.587c11.13-4.068,22.203-8.564,33.115-13.362
                c2.209-1.024,4.419-2.043,6.616-3.098c27.887-13.188,59.467-28.123,81.099-48.56c1.836-1.728,3.603-3.541,5.335-5.387
                C292.334,152.026,292.781,151.535,293.229,151.044z M253.299,128.232c-6.271,6.203-14.509,9.304-22.745,9.304
                c-8.235,0-16.472-3.101-22.743-9.302c-6.087-6.02-9.438-14.024-9.438-22.543c0-8.52,3.354-16.523,9.436-22.543
                c12.544-12.404,32.949-12.398,45.487-0.003c6.091,6.02,9.441,14.024,9.441,22.543
                C262.737,114.205,259.387,122.212,253.299,128.232z"/>
            </g>
        </g>
    </g>

    <g class="icon" id="browser">
        <g>
            <path fill="#FFFFFF" d="M272.845,340H65.282l-2.232-3.349c-16.739-22.318-24.55-49.1-24.55-76.998
            c0-72.537,59.145-130.565,130.564-130.565c71.42,0,130.565,59.145,130.565,130.565c0,27.898-8.928,54.68-24.551,76.998
            L272.845,340z M74.208,323.261h189.709c12.275-18.973,18.971-41.291,18.971-63.608c0-62.494-51.333-113.826-113.826-113.826
            c-62.492,0-113.825,51.332-113.825,113.826C55.238,283.087,61.934,305.405,74.208,323.261z"/>
        </g>
        <g>
            <path fill="#FFFFFF" d="M211.469,340h-84.811l-1.116-6.695c-5.579-22.318-8.927-46.869-8.927-73.651
            c0-63.609,18.971-130.565,52.448-130.565c33.477,0,52.449,66.956,52.449,130.565c0,26.782-3.348,52.449-8.927,73.651L211.469,340z
            M140.049,323.261h58.028c4.463-18.973,6.695-41.291,6.695-63.608c0-70.305-21.202-113.826-35.709-113.826
            c-14.507,0-35.709,43.521-35.709,113.826C133.354,283.087,135.585,304.289,140.049,323.261z"/>
        </g>
        <g>
            <rect x="46.31" y="251.841" fill="#FFFFFF" width="245.505" height="16.74"/>
        </g>
        <g>
            <path fill="#FFFFFF" d="M339.801,102.305H-0.559V-0.361h340.359V102.305z M16.181,85.566h306.883V16.378H16.181V85.566z"/>
        </g>
        <g>
            <path fill="#FFFFFF" d="M339.801,340H-0.559V85.566h340.359V340z M16.181,323.261h306.883V102.305H16.181V323.261z"/>
        </g>
        <g>
            <rect x="236.02" y="42.045" fill="#FFFFFF" width="16.739" height="18.971"/>
        </g>
        <g>
            <rect x="279.541" y="42.045" fill="#FFFFFF" width="16.739" height="18.971"/>
        </g>
        <g>
            <rect x="44.079" y="43.16" fill="#FFFFFF" width="49.101" height="16.739"/>
        </g>
    </g>

    <g class="icon" id="coding">
        <g>
            <path fill="#FFFFFF" d="M113.241,91.995V212.39c0,3.895,3.187,7.081,7.082,7.081H247.8c3.896,0,7.082-3.187,7.082-7.081v-21.246
            h21.246c3.896,0,7.082-3.188,7.082-7.082v-21.247h21.247c3.894,0,7.082-3.187,7.082-7.083V35.41c0-3.895-3.188-7.082-7.082-7.082
            H176.979c-3.895,0-7.082,3.187-7.082,7.082v21.247h-21.247c-3.895,0-7.082,3.187-7.082,7.081v21.247h-21.247
            C116.428,84.913,113.241,88.101,113.241,91.995z M184.062,42.492h113.241v106.16H184.062V42.492z M155.733,70.75h14.165v84.983
            c0,3.896,3.187,7.083,7.082,7.083h91.995v14.165H155.733V70.75z M127.406,99.077h14.164v84.985c0,3.895,3.187,7.082,7.082,7.082
            h92.066v14.164H127.406V99.077z"/>
            <path fill="#FFFFFF" d="M214.444,118.27c2.761,2.762,7.224,2.762,9.984,0c2.763-2.762,2.763-7.224,0-9.986l-9.136-9.207
            l9.136-9.136c2.763-2.762,2.763-7.224,0-9.986c-2.761-2.761-7.224-2.761-9.984,0L200.28,94.12c-2.763,2.763-2.763,7.224,0,9.986
            L214.444,118.27z"/>
            <path fill="#FFFFFF" d="M256.937,118.27c2.761,2.762,7.224,2.762,9.984,0l14.165-14.164c2.763-2.763,2.763-7.224,0-9.986
            l-14.165-14.164c-2.761-2.761-7.224-2.761-9.984,0c-2.763,2.762-2.763,7.224,0,9.986l9.136,9.136l-9.136,9.207
            C254.174,111.046,254.174,115.508,256.937,118.27z"/>
            <path fill="#FFFFFF" d="M99.078,63.243v7.507h-7.082c-3.895,0-7.083,3.187-7.083,7.082s3.188,7.082,7.083,7.082h14.165
            c3.895,0,7.081-3.187,7.081-7.082V66.5l4.533-3.824c3.328-2.833,3.328-8.003,0-10.836l-4.533-3.824V35.41
            c0-3.895-3.187-7.082-7.081-7.082H91.996c-3.895,0-7.083,3.187-7.083,7.082s3.188,7.082,7.083,7.082h7.082v8.852
            c0,3.896,2.974,5.736,3.187,5.949l-0.637,0.567C99.998,59.206,99.078,61.188,99.078,63.243z"/>
            <path fill="#FFFFFF" d="M30.807,62.676l4.532,3.824v11.331c0,3.895,3.188,7.082,7.082,7.082h14.164
            c3.896,0,7.083-3.187,7.083-7.082s-3.187-7.082-7.083-7.082h-7.082v-7.507c0-3.966-2.904-5.595-3.187-5.95
            c0.283-0.354,3.187-2.054,3.187-5.949v-8.852h7.082c3.896,0,7.083-3.187,7.083-7.082s-3.187-7.082-7.083-7.082H42.421
            c-3.895,0-7.082,3.187-7.082,7.082v12.606l-4.532,3.824C27.478,54.673,27.478,59.843,30.807,62.676z"/>
            <path fill="#FFFFFF" d="M332.714,0H7.082C3.187,0,0,3.187,0,7.082v269.047c0,3.895,3.187,7.082,7.082,7.082h127.405v42.492
            h-14.164c-3.895,0-7.082,3.187-7.082,7.082s3.187,7.082,7.082,7.082c37.606,0,78.682,0,99.078,0c3.895,0,7.081-3.187,7.081-7.082
            s-3.187-7.082-7.081-7.082h-14.164v-42.492h127.405c3.896,0,7.083-3.188,7.083-7.082V7.082C339.796,3.187,336.609,0,332.714,0z
                M325.632,14.164v219.473H14.163V14.164H325.632z M191.144,325.632h-42.492v-42.492h42.492V325.632z M14.163,269.046v-21.245
            h311.469v21.245C264.938,269.046,74.928,269.046,14.163,269.046z"/>
            <path fill="#FFFFFF" d="M91.996,120.323H35.339c-5.028,0-8.427,5.028-6.586,9.702l28.328,70.82c2.337,5.879,10.765,5.95,13.173,0
            l28.328-70.82C100.423,125.423,97.024,120.323,91.996,120.323z M81.585,134.488l-2.833,7.153c-0.708-0.071-29.32-0.071-30.028,0
            l-2.833-7.153H81.585z M63.738,179.175l-9.419-23.441h18.696L63.738,179.175z"/>
        </g>
    </g>

    <g class="icon" id="curve">
        <path fill="#FFFFFF" d="M331.275,294.4H17.082V37.244c0-4.617-3.738-8.355-8.356-8.355c-4.617,0-8.355,3.738-8.355,8.355v265.51
            c0,4.613,3.738,8.355,8.355,8.355h322.549c4.612,0,8.354-3.742,8.354-8.355C339.63,298.142,335.888,294.4,331.275,294.4z"/>
        <path fill="#FFFFFF" d="M280.564,267.836c4.611,0,8.354-3.743,8.354-8.356c0-4.612-3.743-8.354-8.354-8.354
            c-122.272,0-221.75-89.335-221.75-199.136c0-4.618-3.738-8.355-8.356-8.355c-4.617,0-8.355,3.738-8.355,8.355
            C42.103,171.008,149.074,267.836,280.564,267.836z"/>
    </g>

    <g class="icon" id="discussion">
        <path fill="#FFFFFF" d="M229.675,86.448c-3.215-4.285-5.356-9.284-6.428-12.14c7.499-5.356,11.783-12.497,11.783-20.352
        c0-16.068-18.567-29.279-41.776-29.279c-12.14,0-23.208,3.571-30.707,9.641c7.499,1.785,14.639,4.642,20.352,8.569
        c9.998,7.141,15.71,17.139,15.71,27.494c0,4.285-1.07,8.569-2.855,12.854c3.214,0,6.427-0.713,9.641-1.071
        c4.641,2.857,12.14,7.141,20.71,9.284C228.96,91.804,231.103,88.59,229.675,86.448z"/>
        <path fill="#FFFFFF" d="M148.979,41.101c-22.852,0-41.776,13.211-41.776,29.279c0,7.855,4.642,15.354,11.783,20.352
        c-1.071,2.856-3.571,8.213-6.427,12.141c-1.785,2.142,0.357,5.355,3.213,4.642c8.57-2.143,16.425-6.427,20.71-9.284
        c3.927,0.714,7.855,1.428,12.14,1.428c22.852,0,41.775-13.211,41.775-29.279S171.83,41.101,148.979,41.101z M128.983,76.093
        c-3.213,0-5.712-2.499-5.712-5.713c0-3.213,2.499-5.713,5.712-5.713c3.214,0,5.714,2.5,5.714,5.713
        C134.697,73.594,132.198,76.093,128.983,76.093z M148.979,76.093c-3.213,0-5.713-2.499-5.713-5.713c0-3.213,2.5-5.713,5.713-5.713
        c3.214,0,5.712,2.5,5.712,5.713C154.692,73.594,152.193,76.093,148.979,76.093z M168.617,76.093c-3.213,0-5.713-2.499-5.713-5.713
        c0-3.213,2.5-5.713,5.713-5.713s5.713,2.5,5.713,5.713C174.33,73.594,171.83,76.093,168.617,76.093z"/>
        <path fill="#FFFFFF" d="M98.991,119.297c-3.213-8.569-10.354-14.64-18.923-16.781c-5.714,3.213-12.141,4.999-18.925,4.999
        s-13.568-1.786-18.924-4.999c-8.569,2.142-15.711,8.212-18.924,16.781L1.156,176.785c-2.142,6.07,0.714,12.496,6.784,14.639
        c6.07,2.142,12.497-0.715,14.64-6.784l11.069-29.279v35.706l-8.57,109.262c-0.713,7.854,4.999,14.639,12.854,14.995
        c0.357,0,0.714,0,1.071,0c7.142,0,13.569-5.712,13.926-12.853l8.212-100.692l8.212,100.692c0.714,7.499,6.784,12.853,13.925,12.853
        c0.358,0,0.715,0,1.071,0c7.856-0.714,13.568-7.496,12.854-14.995l-8.926-109.262V155.36l11.068,29.279
        c1.785,4.642,6.07,7.499,10.712,7.499c1.429,0,2.857-0.358,3.928-0.715c6.07-2.143,8.927-8.927,6.784-14.639L98.991,119.297z"/>
        <circle fill="#FFFFFF" cx="61.143" cy="68.952" r="28.208"/>
        <path fill="#FFFFFF" d="M338.578,176.427l-27.137-61.414c-2.5-6.07-7.855-10.355-13.926-12.14
        c-5.355,2.856-11.426,4.642-18.21,4.642c-6.428,0-12.854-1.786-18.209-4.642c-6.07,1.785-11.427,6.07-13.926,12.14l-27.138,61.414
        c-2.499,5.356,0,12.14,5.714,14.282c5.355,2.5,12.14,0,14.282-5.713l12.497-28.207v16.781l-19.28,66.771
        c-1.072,3.57-0.357,7.14,1.784,9.997c2.143,2.856,5.713,4.642,9.284,4.642h3.213l-3.571,44.989
        c-0.713,7.499,4.999,13.927,12.498,14.64c0.356,0,0.714,0,1.071,0c7.141,0,12.854-5.356,13.568-12.497l3.928-47.132h9.283
        l3.927,47.132c0.716,7.141,6.428,12.497,13.569,12.497c0.356,0,0.714,0,1.071,0c7.498-0.713,12.854-7.141,12.497-14.64
        l-3.57-44.989h3.213c3.57,0,7.142-1.785,9.283-4.642c2.143-2.857,2.857-6.784,1.786-9.997l-19.638-66.771v-16.781l12.496,28.207
        c1.785,3.929,5.713,6.428,9.998,6.428c1.429,0,2.856-0.357,4.285-1.072C338.578,188.21,341.077,181.783,338.578,176.427z"/>
        <circle fill="#FFFFFF" cx="279.663" cy="68.952" r="28.208"/>
    </g>

    <g class="icon" id="django">
        <path fill="#FFFFFF" d="M157.888-0.246h55.676V257.46c-28.562,5.421-49.529,7.591-72.305,7.591
        c-67.966,0-103.396-30.725-103.396-89.657c0-56.759,37.601-93.635,95.805-93.635c9.038,0,15.907,0.726,24.222,2.889V-0.246H157.888z
        M157.888,129.474c-6.507-2.167-11.928-2.89-18.797-2.89c-28.199,0-44.47,17.355-44.47,47.72c0,29.649,15.547,45.916,44.108,45.916
        c6.143,0,11.208-0.361,19.159-1.441V129.474z"/>
    <path fill="#FFFFFF" d="M302.136,85.731v129.07c0,44.463-3.255,65.793-13.015,84.234c-9.039,17.715-20.972,28.916-45.554,41.211
        l-51.7-24.584c24.585-11.568,36.516-21.684,44.106-37.239c7.956-15.902,10.488-34.346,10.488-82.791V85.731H302.136z M246.462,0.05
        h55.674v57.125h-55.674V0.05z"/>
    </g>

    <g class="icon" id="fast">
        <path fill="#FFFFFF" d="M203.991,34.035c-36.138,0-70.129,14.312-95.891,40.074l0,0c-4.651,4.651-4.651,12.165,0,16.817
        l20.037,20.037c2.504,2.505,5.367,3.579,8.587,3.579c3.22,0,6.083-1.074,8.587-3.579c4.652-4.651,4.652-12.165,0-16.816
        L134.22,83.053c16.817-13.597,36.854-21.826,58.321-23.973v15.743c0,6.441,5.367,11.808,11.809,11.808
        c6.44,0,11.807-5.367,11.807-11.808V59.081c21.826,2.505,41.863,11.092,58.322,24.331l-11.45,10.734
        c-4.651,4.651-4.651,12.166,0,16.816c2.505,2.505,5.367,3.579,8.588,3.579s6.083-1.074,8.587-3.579l11.093-11.092
        c13.238,16.101,21.825,36.138,24.33,58.322h-15.744c-6.439,0-11.807,5.367-11.807,11.808s5.367,11.808,11.807,11.808h15.744
        c-2.505,21.825-11.092,41.862-24.33,57.964l-11.093-11.092c-4.651-4.651-12.165-4.651-16.816,0s-4.651,12.166,0,16.816
        l11.092,11.092c-16.459,13.597-36.496,22.185-58.322,24.689v-15.743c0-6.441-5.366-11.809-11.807-11.809
        c-6.441,0-11.809,5.367-11.809,11.809v15.743c-21.468-2.146-41.504-10.734-58.321-23.973l11.092-11.092
        c4.652-4.652,4.652-12.166,0-16.817c-4.651-4.651-12.165-4.651-16.817,0l-20.037,20.037l0,0c-1.073,1.073-2.146,2.505-2.505,3.936
        c-1.789,4.294-0.715,9.304,2.505,12.881l0,0c25.404,25.404,59.395,39.717,95.533,39.717c74.781,0,135.965-60.827,135.965-135.966
        S279.13,34.035,203.991,34.035z"/>
        <path fill="#FFFFFF" d="M203.991,102.375c-6.44,0-11.807,5.367-11.807,11.807V170c0,6.44,5.366,11.808,11.807,11.808h47.588
        c6.44,0,11.808-5.367,11.808-11.808s-5.367-11.807-11.808-11.807h-35.423v-44.01C216.156,107.742,210.79,102.375,203.991,102.375z"
        />
        <path fill="#FFFFFF" d="M91.283,158.193H11.851c-6.44,0-11.807,5.367-11.807,11.807s5.367,11.808,11.807,11.808h79.432
        c6.44,0,11.808-5.367,11.808-11.808S97.724,158.193,91.283,158.193z"/>
        <path fill="#FFFFFF" d="M91.283,112.394H39.044c-6.441,0-11.808,5.367-11.808,11.807c0,6.44,5.367,11.808,11.808,11.808h52.239
        c6.44,0,11.808-5.367,11.808-11.808C103.091,117.761,97.724,112.394,91.283,112.394z"/>
        <path fill="#FFFFFF" d="M91.283,203.634H39.044c-6.441,0-11.808,5.366-11.808,11.808c0,6.44,5.367,11.808,11.808,11.808h52.239
        c6.44,0,11.808-5.367,11.808-11.808C103.091,209,97.724,203.634,91.283,203.634z"/>
    </g>

    <g class="icon" id="workflow">
        <path fill="#FFFFFF" d="M215.671,75.67l48.766,48.835c5.976,6.118,15.777,6.233,21.895,0.259c0.087-0.085,0.175-0.171,0.259-0.259
        l48.838-48.835c6.106-5.985,6.207-15.787,0.222-21.896c-0.072-0.076-0.147-0.15-0.222-0.223L286.556,4.68
        c-5.948-6.118-15.728-6.255-21.845-0.309c-0.104,0.101-0.207,0.204-0.31,0.309l-48.73,48.836c-6.117,5.947-6.256,15.727-0.31,21.844
        C215.465,75.464,215.567,75.568,215.671,75.67z M225.607,63.451l48.766-48.835c0.484-0.631,1.388-0.748,2.018-0.263
        c0.101,0.076,0.189,0.164,0.264,0.263l48.836,48.835c0.631,0.485,0.749,1.389,0.264,2.019c-0.076,0.099-0.164,0.188-0.264,0.263
        l-48.836,48.837c-0.484,0.629-1.388,0.748-2.018,0.263c-0.1-0.076-0.188-0.165-0.264-0.263l-48.871-48.837
        c-0.631-0.484-0.748-1.387-0.265-2.018c0.077-0.099,0.166-0.188,0.265-0.264H225.607z"/>
        <path fill="#FFFFFF" d="M59.333,5.241C26.564,5.241,0,31.806,0,64.575c0,32.769,26.564,59.333,59.333,59.333
        c32.769,0,59.333-26.563,59.333-59.333l0,0C118.628,31.822,92.086,5.28,59.333,5.241z M59.333,109.9
        c-25.013,0-45.29-20.277-45.29-45.29c0-25.013,20.277-45.291,45.29-45.291c24.999,0,45.27,20.256,45.289,45.256
        C104.604,89.586,84.344,109.862,59.333,109.9z"/>
        <polygon fill="#FFFFFF" points="171.33,92.978 205.244,64.575 171.33,36.207 162.306,46.986 174.98,57.553 130.709,57.553 
        130.709,71.596 174.98,71.596 162.306,82.199 "/>
        <polygon fill="#FFFFFF" points="268.474,136.933 268.474,181.171 257.907,168.496 247.129,177.519 275.497,211.469 303.865,177.519 
        293.12,168.496 282.518,181.171 282.518,136.933 "/>
        <path fill="#FFFFFF" d="M109.96,227.093H8.532v101.254H109.96V227.093z M95.917,314.302H22.574v-73.166h73.342V314.302z"/>
        <path fill="#FFFFFF" d="M216.163,277.684c0,32.769,26.564,59.332,59.334,59.332c32.768,0,59.333-26.563,59.333-59.332
        c0-32.77-26.565-59.333-59.333-59.333c-0.048,0-0.095,0-0.142,0C242.658,218.467,216.201,244.986,216.163,277.684z M275.355,232.395
        c25.014,0,45.29,20.276,45.29,45.289c0,25.014-20.276,45.288-45.29,45.288c-25.013,0-45.29-20.274-45.29-45.288
        C230.104,252.686,250.359,232.432,275.355,232.395z"/>
        <polygon fill="#FFFFFF" points="169.363,295.309 156.724,284.705 200.961,284.705 200.961,270.663 156.724,270.663 169.363,260.095 
        160.341,249.316 126.426,277.684 160.341,306.086 "/>
    </g>

    <g class="icon" id="time" transform="translate(0,-290.64999)">
        <path fill="#FFFFFF" d="M65.38,290.65v19.62c0.003,44.179,22.313,85.37,59.313,109.51c22.571,14.733,28.926,44.976,14.192,67.547
        c-3.696,5.663-8.529,10.497-14.192,14.192c-37,24.142-59.31,65.331-59.313,109.511v19.62h209.24v-19.62
        c-0.003-44.18-22.313-85.369-59.312-109.511c-22.572-14.733-28.926-44.976-14.192-67.547c3.696-5.663,8.529-10.495,14.192-14.192
        c36.999-24.14,59.31-65.331,59.312-109.51v-19.62H65.38z M80.835,306.104h178.331v4.165c-0.007,38.956-19.685,75.276-52.311,96.561
        c-29.725,19.392-38.099,59.208-18.707,88.933c4.872,7.465,11.241,13.835,18.707,18.706c32.626,21.284,52.304,57.604,52.311,96.561
        v4.165H80.835v-4.165c0.007-38.957,19.682-75.276,52.309-96.561c29.724-19.394,38.098-59.209,18.707-88.934
        c-4.87-7.465-11.241-13.834-18.707-18.705c-32.627-21.285-52.302-57.605-52.309-96.561V306.104z"/>
        <path fill="#FFFFFF" d="M100.854,360.194h138.291c-8.534,16.289-21.102,30.118-36.501,40.169
        c-20.366,13.29-32.644,35.967-32.644,60.287c0-24.319-12.279-46.997-32.646-60.287
        C121.955,390.312,109.389,376.483,100.854,360.194z"/>
        <path fill="#FFFFFF" d="M126.837,607.468l43.164-43.165l43.162,43.165H126.837z"/>
    </g>

    <g class="icon" id="testing">
        <path fill="#FFFFFF" d="M146.73,121.031h87.129c5.884,0,10.655-4.77,10.655-10.655s-4.771-10.656-10.655-10.656H146.73
        c-5.885,0-10.656,4.771-10.656,10.656S140.845,121.031,146.73,121.031z"/>
        <path fill="#FFFFFF" d="M95.333,86.79l-27.279,27.812L57.861,104.55c-4.199-4.129-10.949-4.074-15.078,0.125
        c-4.13,4.198-4.074,10.949,0.124,15.078l0,0l17.76,17.511c1.99,1.956,4.669,3.053,7.459,3.055l0,0
        c2.823-0.03,5.518-1.181,7.494-3.197l34.738-35.519c4.682-3.565,5.587-10.251,2.022-14.934c-3.565-4.682-10.252-5.587-14.934-2.021
        C96.645,85.257,95.933,85.979,95.333,86.79z"/>
        <path fill="#FFFFFF" d="M95.333,155.165l-27.279,27.812l-10.193-10.052c-4.199-4.129-10.949-4.074-15.078,0.124
        c-4.13,4.198-4.074,10.949,0.124,15.078l17.76,17.511c1.99,1.956,4.669,3.053,7.459,3.055l0,0c2.884,0.017,5.653-1.136,7.672-3.196
        l34.738-35.52c4.47-3.828,4.991-10.554,1.163-15.025c-3.827-4.47-10.555-4.991-15.024-1.163
        C96.188,154.206,95.739,154.667,95.333,155.165z"/>
        <path fill="#FFFFFF" d="M279.501,163.725V51.555c0-25.502-20.674-46.175-46.175-46.175H46.175C20.673,5.38,0,26.053,0,51.555
        v167.119c0,25.502,20.673,46.176,46.175,46.176h120.197c9.871,47.377,56.28,77.781,103.657,67.91
        c47.377-9.872,77.782-56.28,67.91-103.657C331.549,198.428,309.268,173.502,279.501,163.725z M46.175,26.692h187.151
        c11.264,0.007,21.114,7.585,24.011,18.47H22.164C25.061,34.277,34.912,26.699,46.175,26.692z M21.312,218.674v-152.2h236.878v93.096
        c-1.989,0-3.979-0.213-5.968-0.213c-13.321-0.019-26.469,3.018-38.432,8.88c-0.391-0.021-0.781-0.021-1.172,0H146.73
        c-5.885,0-10.656,4.771-10.656,10.655c0,5.886,4.771,10.656,10.656,10.656h39.498c-13.168,15.042-20.767,34.153-21.524,54.131
        H46.175c-13.732,0.001-24.864-11.131-24.865-24.862C21.311,218.768,21.312,218.721,21.312,218.674z M252.188,313.261
        c-36.625-0.02-66.3-29.726-66.28-66.351c0.02-36.624,29.726-66.298,66.351-66.278c36.61,0.02,66.279,29.704,66.279,66.314
        c-0.039,36.608-29.706,66.275-66.315,66.314H252.188z"/>
        <path fill="#FFFFFF" d="M269.378,226.204L242.1,254.015l-10.194-10.052c-4.198-4.13-10.948-4.074-15.078,0.124
        s-4.073,10.948,0.124,15.078l0,0l17.76,17.511c1.991,1.955,4.669,3.053,7.46,3.055l0,0c2.884,0.017,5.652-1.137,7.672-3.197
        l34.738-35.519c4.47-3.828,4.99-10.555,1.163-15.025c-3.828-4.47-10.555-4.99-15.025-1.163
        C270.231,225.245,269.783,225.706,269.378,226.204z"/>
    </g>

    <g class="icon" id="python">
        <path id="path1948" fill="#FFFFFF" d="M166.575,0.003c-13.903,0.065-27.179,1.25-38.861,3.317
        C93.299,9.401,87.051,22.126,87.051,45.594v30.994h81.326V86.92H87.051H56.53c-23.635,0-44.331,14.206-50.805,41.231
        c-7.467,30.977-7.799,50.307,0,82.652c5.781,24.077,19.586,41.23,43.222,41.23h27.961V214.88c0-26.842,23.225-50.521,50.805-50.521
        h81.229c22.613,0,40.664-18.616,40.664-41.326V45.594c0-22.038-18.59-38.596-40.664-42.274
        C194.975,0.995,180.479-0.063,166.575,0.003z M122.595,24.931c8.4,0,15.26,6.973,15.26,15.544c0,8.543-6.86,15.449-15.26,15.449
        c-8.431,0-15.26-6.906-15.26-15.449C107.335,31.904,114.164,24.931,122.595,24.931z"/>
        <path id="path1950" fill="#FFFFFF" d="M259.747,86.92v36.113c0,28-23.737,51.562-50.806,51.562h-81.229
        c-22.251,0-40.663,19.043-40.663,41.325v77.439c0,22.04,19.165,35.005,40.663,41.326c25.743,7.571,50.43,8.938,81.229,0
        c20.475-5.927,40.664-17.858,40.664-41.326v-30.994h-81.229v-10.332h81.229h40.662c23.637,0,32.445-16.486,40.662-41.23
        c8.492-25.475,8.131-49.973,0-82.652c-5.841-23.527-16.996-41.231-40.662-41.231H259.747L259.747,86.92z M214.061,283.029
        c8.432,0,15.262,6.908,15.262,15.45c0,8.572-6.83,15.545-15.262,15.545c-8.398,0-15.26-6.973-15.26-15.545
        C198.801,289.937,205.661,283.029,214.061,283.029z"/>
    </g>

    <g class="icon" id="lightbulb">
        <path fill="#FFFFFF" d="M169.999,70.237c-61.453,0-86.113,47.493-86.113,80.894c0,48.788,38.212,84.8,46.972,122.646h78.285
        c8.762-37.847,46.971-73.857,46.971-122.646C256.111,117.73,231.455,70.237,169.999,70.237z"/>
        <path fill="#FFFFFF" d="M130.857,310.36c0,11.336,4.457,15.792,15.792,15.792h1.413h0.197l1.548,4.649
        c2.357,7.086,5.243,9.167,12.71,9.167h14.967c7.472,0,10.351-2.081,12.711-9.167l1.543-4.649h0.197h1.418
        c11.338,0,15.787-4.456,15.787-15.792v-23.61h-78.284V310.36L130.857,310.36z"/>
        <path fill="#FFFFFF" d="M169.999,50.135c4.759,0,7.826-3.074,7.826-7.83V7.859c0-4.755-3.067-7.826-7.826-7.826
        c-4.755,0-7.826,3.071-7.826,7.83V42.31C162.172,47.065,165.244,50.135,169.999,50.135z"/>
        <path fill="#FFFFFF" d="M239.168,70.766c3.753,2.923,8.062,2.395,10.991-1.35l21.206-27.146c2.931-3.747,2.4-8.064-1.346-10.988
        c-3.746-2.931-8.063-2.402-10.992,1.349l-21.199,27.143C234.889,63.525,235.424,67.839,239.168,70.766z"/>
        <path fill="#FFFFFF" d="M325.453,118.531c-1.158-4.616-4.877-6.855-9.494-5.704l-33.427,8.335c-4.614,1.153-6.853,4.873-5.702,9.488
        c1.15,4.619,4.875,6.852,9.49,5.704l33.424-8.333C324.363,126.87,326.604,123.146,325.453,118.531z"/>
        <path fill="#FFFFFF" d="M308.832,209.584l-31.466-14.009c-4.345-1.934-8.404-0.374-10.335,3.974c-1.934,4.349-0.377,8.4,3.97,10.339
        l31.464,14.002c4.342,1.94,8.402,0.381,10.332-3.967C314.736,215.582,313.175,211.526,308.832,209.584z"/>
        <path fill="#FFFFFF" d="M89.845,69.417c2.928,3.747,7.241,4.271,10.988,1.35c3.747-2.932,4.275-7.241,1.349-10.992L80.973,32.632
        c-2.927-3.746-7.241-4.274-10.988-1.349c-3.747,2.928-4.271,7.241-1.345,10.988L89.845,69.417z"/>
        <path fill="#FFFFFF" d="M63.164,130.655c1.152-4.62-1.087-8.339-5.703-9.492l-33.423-8.335c-4.616-1.145-8.339,1.091-9.491,5.707
        c-1.145,4.616,1.087,8.336,5.707,9.488l33.42,8.333C58.289,137.502,62.012,135.27,63.164,130.655z"/>
        <path fill="#FFFFFF" d="M62.636,195.575l-31.467,14.017c-4.347,1.931-5.903,5.99-3.965,10.33c1.93,4.348,5.99,5.904,10.334,3.975
        l31.467-14.018c4.347-1.931,5.904-5.99,3.966-10.331C71.036,195.205,66.983,193.649,62.636,195.575z"/>
    </g>

    <g class="icon" id="github">
        <path fill-rule="evenodd" clip-rule="evenodd" fill="#FFFFFF" d="M168.779,5.381C75.578,5.381,0,80.949,0,174.169
        c0,74.576,48.357,137.84,115.437,160.164c8.44,1.538,11.521-3.664,11.521-8.136c0-4.008-0.147-14.633-0.229-28.719
        c-46.952,10.2-56.858-22.625-56.858-22.625c-7.675-19.488-18.739-24.689-18.739-24.689c-15.325-10.464,1.159-10.263,1.159-10.263
        c16.938,1.196,25.854,17.406,25.854,17.406c15.057,25.781,39.503,18.335,49.121,14.024c1.533-10.908,5.894-18.356,10.716-22.565
        c-37.48-4.27-76.884-18.741-76.884-83.425c0-18.427,6.578-33.495,17.375-45.294c-1.736-4.27-7.528-21.431,1.655-44.664
        c0,0,14.171-4.544,46.415,17.303c13.464-3.744,27.904-5.625,42.257-5.687c14.333,0.062,28.773,1.943,42.252,5.687
        c32.229-21.847,46.374-17.303,46.374-17.303c9.209,23.233,3.411,40.394,1.681,44.664c10.816,11.799,17.354,26.867,17.354,45.294
        c0,64.846-39.465,79.115-77.066,83.284c6.052,5.221,11.455,15.521,11.455,31.267c0,22.565-0.203,40.759-0.203,46.305
        c0,4.513,3.035,9.754,11.598,8.114c67.017-22.362,115.335-85.586,115.335-160.143C337.578,80.949,262,5.381,168.779,5.381z"/>
    </g>

    <g class="icon" id="twitter">
        <path fill="#FFFFFF" d="M107.188,307.589c127.776,0,197.651-105.858,197.651-197.651c0-3.008-0.062-6.002-0.199-8.981
        c13.563-9.805,25.354-22.039,34.656-35.968c-12.447,5.529-25.843,9.256-39.894,10.936c14.342-8.599,25.354-22.207,30.546-38.428
        c-13.426,7.958-28.287,13.746-44.109,16.862c-12.676-13.502-30.729-21.948-50.707-21.948c-38.366,0-69.478,31.111-69.478,69.462
        c0,5.453,0.611,10.753,1.803,15.839C109.723,114.81,58.528,87.166,24.27,45.134c-5.972,10.263-9.408,22.191-9.408,34.915
        c0,24.101,12.265,45.376,30.913,57.824c-11.394-0.35-22.101-3.482-31.463-8.69c-0.015,0.29-0.015,0.581-0.015,0.885
        c0,33.647,23.948,61.735,55.732,68.104c-5.835,1.588-11.975,2.444-18.313,2.444c-4.475,0-8.828-0.443-13.058-1.254
        c8.843,27.6,34.487,47.684,64.896,48.249c-23.781,18.634-53.732,29.737-86.279,29.737c-5.605,0-11.134-0.321-16.571-0.963
        C31.448,296.089,67.951,307.589,107.188,307.589"/>
    </g>

    <g class="icon" id="email">
        <path fill="#FFFFFF" d="M323.032,48.63H16.97c-8.729,0-15.831,7.103-15.831,15.832v211.078c0,8.727,7.103,15.83,15.831,15.83
        h306.062c8.728,0,15.829-7.104,15.829-15.83V64.461C338.861,55.732,331.76,48.63,323.032,48.63z M209.709,149.477l118.6-80.342
        v198.942L209.709,149.477z M323.032,59.184c0.311,0,0.58,0.126,0.881,0.179L170.001,163.625L16.088,59.363
        c0.301-0.053,0.57-0.179,0.882-0.179H323.032z M11.692,273.353V69.135l121.744,82.474L11.692,273.353z M19.154,280.815
        l123.18-123.18l24.706,16.732c0.892,0.607,1.926,0.908,2.961,0.908c1.034,0,2.068-0.301,2.96-0.908l27.852-18.864L325.459,280.15
        c-0.738,0.386-1.541,0.665-2.427,0.665H19.154z"/>
    </g>

    <g class="icon" id="earth">
        <path fill="#FFFFFF" d="M169.261,339.58C75.857,339.58,0,263.805,0,170.319C0,76.833,75.857,1.058,169.261,1.058
        c93.401,0,169.261,75.775,169.261,169.261C338.521,263.722,262.746,339.58,169.261,339.58z M169.261,10.331
        c-88.223,0-159.987,71.765-159.987,159.988c0,88.225,71.764,159.987,159.987,159.987c88.223,0,159.987-71.763,159.987-159.987
        C329.248,82.096,257.483,10.331,169.261,10.331z"/>
        <g>
            <path fill="#FFFFFF" d="M196.579,283.771l9.19-27.234l10.442-8.854l13.2-0.418v18.462l-13.2,17.712L196.579,283.771z
            M213.79,261.718l-4.012,12.03h2.007l8.437-11.195v-6.016h-0.418L213.79,261.718z"/>
            <path fill="#FFFFFF" d="M152.468,312.262l-30.076-53.719l4.428-11.196l-15.623-30.912l0.835-11.612L96.828,194.38l-22.056,8.438
            l-20.469-15.205l-2.423-55.725l34.086-35.256h31.246l20.467,11.195l2.424-6.433l34.085,6.016l2.005-0.835l0.836-1.17l-1.587-2.423
            l-4.012,0.418l-9.606-2.423l-2.005-11.194l-2.84,2.005l-3.175,7.602l-11.613-2.423l-1.587-7.184l-4.01,4.845h-16.041l-4.428-5.18
            l-1.587-5.179l-17.21,9.607H82.875V73.825l15.623-6.433l3.593-5.597l2.005-1.588l-0.417-0.835l-6.015-4.01l6.85-10.442
            l5.597-8.021l11.613,4.011l3.592,6.016l1.587-0.418l-6.182-12.114l23.225-19.633h24.061l2.841,6.851l8.855-0.417l-0.835,3.592
            l8.856-4.845h12.446l3.594-2.423l21.638-5.597l2.423,8.855l-20.05,5.18l-4.847,3.174h-12.866l-15.622,9.607l-6.851-4.427
            l0.417-3.175h-4.009l-2.841-7.185h-14.453l-15.121,12.448l2.423,4.845h4.01l1.587,2.841l13.618-6.851l4.01,8.855l-21.22,10.86
            h-0.418l0,0l0,0l-5.179-2.422l-10.444,4.009l-5.597-9.607l-0.835-0.835l-1.169,2.005l-1.587,2.423l6.434,10.025l-7.603,5.597
            l-4.011,6.85l-13.2,5.18v4.428h2.84l21.638-12.031l4.846,2.422l2.84,10.026l0.417,0.417h7.185l0.418-0.835l1.169-11.195
            l13.618,6.015l1.588,6.851l0.417-0.835l7.186-4.846l6.432-19.215l10.442,3.175l7.186-6.851l19.632,35.256l-20.467-4.01
            l-6.434,0.836l-3.174,2.422l0.418,1.17l2.422,0.835l8.021-0.835l7.604,12.03l-4.847,8.856l-7.603,3.174l-29.241-5.179
            l-3.592,8.855l-27.653-15.207H90.478l-29.074,29.492l2.006,47.286l12.865,9.607l22.056-8.438l23.644,16.458l-1.17,14.452
            l15.623,31.665l-4.009,11.194l22.891,40.519l22.473-17.627l2.006-15.623l12.03-6.434l4.009-10.024l-3.174-19.633l8.02-18.464
            l14.036-10.025l9.609-16.876l-13.618,0.418l-33.251-56.142l2.422-7.186h20.469l23.226,37.679l20.469-12.448l0.418-3.175
            l-7.604-5.179l-6.014,0.417l-14.037-14.035l4.428-8.855l23.228,15.623h16.625l9.188,9.19l6.016,2.005l19.634,44.529l2.004-0.418
            l2.841-4.846l-6.433-22.891l11.613-24.061l11.194,6.015l11.613,32.499h6.015l0.418,9.189l-12.866,0.418l-12.03-34.503
            l-5.598,11.194l6.517,23.476l-6.85,11.196l-13.201,4.009l-23.225-48.957l-4.429-1.17l-8.02-8.02h-3.174l-0.836,11.612
            l-32.081,20.051L193.739,129.8h-5.597l26.482,44.947l24.479-0.418l-18.464,32.917l-12.864,9.189l-5.598,13.617l3.174,19.217
            l-6.015,15.622l-10.861,5.598l-2.006,14.871L152.468,312.262z M169.678,72.906l-3.593,10.443l3.176-2.841l10.86-1.17l2.005,0.418
            l-4.01-6.85l-2.423,2.423L169.678,72.906z M225.402,98.137l-17.627-4.427l-8.438-14.872l2.423-8.856l7.184-10.443l9.608,6.433
            l2.423,10.443L225.402,98.137z M209.361,77.668l3.593,6.433l-1.169-5.598l-1.171-4.845l-0.418,0.835L209.361,77.668z"/>
        </g>
    </g>

    <g class="icon" id="menu">
        <path fill="#FFFFFF" d="M170.051,0C76.135,0,0,76.134,0,170.051s76.135,170.051,170.051,170.051
            c93.917,0,170.051-76.134,170.051-170.051C339.996,76.178,263.924,0.105,170.051,0z M170.051,317.428
            c-81.394,0-147.377-65.983-147.377-147.378c0-81.394,65.983-147.377,147.377-147.377c81.395,0,147.378,65.983,147.378,147.377
            C317.337,251.407,251.407,317.337,170.051,317.428z M252.703,170.051c0,8.348-6.768,15.115-15.114,15.115c-0.001,0-0.001,0-0.001,0
            H102.514c-8.348,0-15.115-6.768-15.115-15.115c0-8.348,6.767-15.116,15.115-15.116h135.074
            C245.936,154.935,252.703,161.702,252.703,170.051C252.703,170.051,252.703,170.051,252.703,170.051z M252.703,103.156
            c0,8.348-6.768,15.115-15.114,15.115c-0.001,0-0.001,0-0.001,0H102.514c-8.348,0-15.115-6.767-15.115-15.115
            s6.767-15.116,15.115-15.116h135.074C245.936,88.04,252.703,94.807,252.703,103.156L252.703,103.156z M252.703,236.945
            c0,8.349-6.768,15.115-15.114,15.116c-0.001,0-0.001,0-0.001,0H102.514c-8.348,0-15.115-6.768-15.115-15.116
            c0-8.348,6.767-15.115,15.115-15.115h135.074C245.936,221.83,252.703,228.597,252.703,236.945L252.703,236.945z"/>
    </g>

</svg>